{"glyphs":{"0":{"ha":986,"x_min":0,"x_max":0,"o":"m 183 147 l 183 147 b 426 0 243 60 328 0 l 426 0 b 669 147 525 0 610 60 l 669 147 b 764 486 728 236 764 356 l 764 486 b 669 826 764 617 728 736 l 669 826 b 426 972 610 913 525 972 l 426 972 b 183 826 328 972 243 913 l 183 826 b 90 486 124 736 90 617 l 90 486 b 183 147 90 356 124 236 z m 240 788 l 240 788 b 426 904 290 864 357 904 l 426 904 b 426 904 426 904 426 904 l 426 904 b 613 788 496 904 561 864 l 613 788 b 696 486 663 713 696 606 l 696 486 b 613 185 696 367 663 260 l 613 185 b 426 68 561 111 496 68 l 426 68 b 240 185 357 68 290 111 l 240 185 b 158 486 190 260 158 367 l 158 486 b 240 788 158 606 190 713 z "},"1":{"ha":465,"x_min":0,"x_max":0,"o":"m 235 33 b 268 0 235 15 250 0 b 301 33 288 0 301 15 l 301 926 b 297 951 303 935 301 943 b 251 964 289 967 267 972 l 64 850 b 51 804 47 842 42 822 b 81 788 57 794 68 788 b 97 793 86 788 93 790 l 235 874 l 235 33 z "},"2":{"ha":819,"x_min":0,"x_max":0,"o":"m 74 10 b 99 0 79 3 89 0 l 104 0 l 646 0 b 679 33 664 0 679 15 b 646 68 679 53 664 68 l 186 68 l 575 419 b 679 656 644 483 679 569 b 596 868 679 731 653 807 b 363 972 533 939 447 972 b 147 890 286 972 208 944 l 100 846 b 99 799 86 835 85 813 b 146 797 110 785 132 783 l 193 840 b 363 904 242 883 301 904 b 547 822 431 904 499 876 b 613 656 590 775 613 715 b 529 469 613 586 583 519 l 75 60 b 74 10 61 46 61 25 z "},"3":{"ha":847,"x_min":0,"x_max":0,"o":"m 671 922 b 675 938 674 926 675 932 b 640 972 675 957 660 972 l 186 972 b 151 938 167 972 151 957 b 186 903 151 918 167 903 l 558 903 l 317 654 b 317 604 303 640 303 618 b 318 604 317 604 318 604 b 346 590 325 596 335 590 b 529 514 413 590 479 565 b 606 331 581 464 606 397 b 529 146 606 264 581 197 b 344 71 478 96 411 71 b 161 146 278 71 213 96 b 113 146 147 160 125 160 b 113 97 99 132 99 110 l 113 97 b 344 0 176 32 261 0 b 344 0 344 0 344 0 b 578 97 429 0 514 33 b 675 331 643 161 675 246 b 579 564 675 415 643 500 b 413 653 532 611 474 640 l 664 911 b 671 922 667 914 669 918 z "},"4":{"ha":922,"x_min":0,"x_max":0,"o":"m 633 33 b 667 0 633 15 649 0 b 701 33 686 0 701 15 l 701 200 l 767 200 b 801 233 786 200 801 215 b 767 267 801 251 786 267 l 701 267 l 701 933 l 701 938 b 700 943 701 939 700 940 b 689 960 697 949 694 956 b 642 956 674 972 654 971 l 640 954 l 78 254 b 82 207 65 240 67 218 b 103 200 88 201 96 200 l 106 200 l 107 200 l 633 200 z m 174 267 l 633 836 l 633 267 z "},"5":{"ha":840,"x_min":0,"x_max":0,"o":"m 331 0 b 564 96 414 0 500 33 b 660 329 629 160 660 246 b 564 563 660 415 629 499 b 332 658 500 628 417 658 b 167 614 274 658 217 643 l 201 903 l 625 903 b 660 938 644 903 660 917 b 625 972 660 957 644 972 l 172 972 b 150 964 164 972 156 969 b 136 939 142 958 136 950 l 89 547 b 88 540 89 544 88 542 b 89 529 88 536 88 532 b 90 525 89 528 89 526 l 90 524 b 99 513 92 519 94 515 b 147 513 111 499 133 499 b 332 589 199 564 264 589 b 515 514 399 589 465 564 b 590 329 565 464 590 397 b 514 146 590 263 565 197 b 331 69 463 94 397 69 b 147 144 264 69 199 94 b 97 144 133 158 111 158 b 97 96 83 132 83 110 b 331 0 161 32 246 0 z "},"6":{"ha":892,"x_min":0,"x_max":0,"o":"m 89 374 b 92 310 89 351 89 331 b 413 0 97 138 239 0 b 735 321 592 0 735 143 b 413 642 735 497 592 642 b 172 532 317 642 231 599 b 242 726 186 601 208 669 b 525 903 303 828 389 897 b 558 939 543 904 558 919 b 524 971 557 957 542 972 b 183 760 363 965 250 878 b 89 374 117 644 90 503 z m 160 321 b 413 574 160 460 274 574 b 668 321 554 574 668 460 b 413 68 668 182 554 68 b 161 288 285 68 178 164 b 163 297 163 290 163 293 b 160 315 161 303 160 308 z "},"7":{"ha":815,"x_min":0,"x_max":0,"o":"m 251 3 b 265 0 257 0 260 0 b 296 21 278 0 290 8 l 672 915 b 678 933 676 921 678 926 b 675 944 678 938 676 940 b 657 965 672 953 665 961 b 636 967 650 968 643 968 l 122 967 b 89 933 104 967 89 951 b 122 900 89 915 104 900 l 592 900 l 232 47 b 251 3 226 31 235 10 z "},"8":{"ha":875,"x_min":0,"x_max":0,"o":"m 190 771 b 271 607 190 703 222 644 b 76 315 157 560 76 446 b 392 0 76 140 218 0 b 707 315 567 0 707 140 b 511 607 707 446 626 560 b 594 771 561 644 594 703 b 392 972 594 882 503 972 b 190 771 279 972 190 882 z m 143 315 b 392 564 143 451 254 564 b 640 315 531 564 640 451 b 392 67 640 178 531 67 b 143 315 254 67 143 178 z m 257 771 b 392 906 257 846 317 906 b 528 771 467 906 528 846 b 392 633 528 696 467 635 b 257 771 317 635 257 696 z "},"9":{"ha":892,"x_min":0,"x_max":0,"o":"m 92 653 b 413 332 92 474 236 332 b 654 439 510 332 596 372 b 585 244 642 369 618 303 b 301 68 525 143 436 74 b 268 32 282 67 268 51 b 303 0 268 14 283 0 l 304 0 b 644 211 464 6 578 96 b 738 599 710 326 738 469 b 735 682 738 628 736 656 b 732 689 733 685 733 686 b 413 972 714 849 579 972 b 92 653 236 972 92 829 z m 413 400 b 160 653 274 400 160 511 b 413 904 160 792 274 904 b 667 653 554 904 667 792 b 413 400 667 511 554 400 z "},"\u0000":{"ha":694,"x_min":0,"x_max":0,"o":""},"B":{"ha":825,"x_min":0,"x_max":0,"o":"m 144 33 b 176 0 144 15 158 0 l 178 0 l 182 0 l 456 0 b 733 278 608 0 733 124 b 543 540 733 400 653 503 b 636 729 599 585 636 653 b 394 972 636 864 528 972 l 182 972 l 178 972 b 144 939 160 972 144 957 z m 213 68 l 213 488 l 456 488 b 665 278 571 488 664 393 b 456 68 664 161 571 68 z m 213 557 l 213 904 l 394 904 b 568 729 490 904 568 826 b 394 557 568 635 490 557 z "},"C":{"ha":1071,"x_min":0,"x_max":0,"o":"m 101 490 l 101 490 b 607 0 101 219 328 0 l 607 0 b 921 106 726 0 836 40 l 921 106 b 925 154 936 117 939 142 l 925 154 b 876 163 915 171 893 174 l 876 163 b 607 68 804 101 710 68 l 607 68 b 169 490 364 68 169 258 l 169 490 b 607 918 169 728 364 918 l 607 918 b 879 824 710 918 804 882 l 879 824 b 926 831 893 813 915 814 l 926 831 b 921 879 939 843 936 867 l 921 879 b 607 986 836 944 726 986 l 607 986 b 101 490 328 985 101 767 z "},"D":{"ha":999,"x_min":0,"x_max":0,"o":"m 360 0 b 846 485 628 0 846 217 b 360 972 846 753 628 972 l 182 972 l 178 972 b 144 939 160 972 144 957 l 144 33 b 175 0 144 15 158 1 l 181 0 z m 213 68 l 213 904 l 360 904 b 778 485 590 903 778 717 b 360 68 778 254 590 68 z "},"E":{"ha":824,"x_min":0,"x_max":0,"o":"m 144 33 b 175 0 144 15 158 1 l 178 0 l 182 0 l 678 0 b 711 33 697 0 711 15 b 678 68 711 53 697 68 l 213 68 l 213 451 l 619 451 b 653 485 638 451 653 467 b 619 519 653 504 638 519 l 213 519 l 213 904 l 678 904 b 711 939 697 904 711 919 b 678 972 711 957 697 972 l 181 972 l 178 972 b 144 939 160 972 144 957 l 144 33 z "},"F":{"ha":840,"x_min":0,"x_max":0,"o":"m 144 33 b 178 0 144 15 160 0 b 213 33 197 0 213 15 l 213 451 l 621 451 b 656 485 640 451 656 467 b 621 519 656 504 640 519 l 213 519 l 213 904 l 679 904 b 713 939 697 904 713 919 b 679 972 713 957 697 972 l 182 972 l 176 972 b 144 939 158 971 144 957 l 144 33 z "},"G":{"ha":1131,"x_min":0,"x_max":0,"o":"m 864 438 l 864 151 b 607 68 792 99 701 68 b 169 494 364 68 169 258 b 607 918 169 728 364 918 b 878 824 711 918 807 882 b 926 829 894 813 915 815 b 922 876 939 843 935 867 b 607 986 835 944 728 986 b 101 494 328 986 101 765 b 607 0 101 219 328 1 b 921 107 726 0 835 39 b 933 132 928 113 932 122 l 933 138 l 933 471 b 903 506 933 489 919 504 l 899 506 l 599 506 b 564 471 579 506 564 490 b 599 438 564 451 579 438 z "},"H":{"ha":985,"x_min":0,"x_max":0,"o":"m 713 33 b 746 0 713 15 728 0 b 781 33 765 0 781 15 l 781 939 b 746 972 781 957 765 972 b 713 939 728 972 713 957 l 713 519 l 213 519 l 213 939 b 178 972 213 957 197 972 b 144 939 160 972 144 957 l 144 33 b 178 0 144 15 160 0 b 213 33 197 0 213 15 l 213 453 l 713 453 l 713 33 z "},"I":{"ha":424,"x_min":0,"x_max":0,"o":"m 154 33 l 154 33 b 188 0 154 15 169 0 l 188 0 b 222 33 207 0 222 15 l 222 939 l 222 939 b 188 972 222 957 207 972 l 188 972 b 154 939 169 972 154 957 l 154 33 z "},"J":{"ha":825,"x_min":0,"x_max":0,"o":"m 64 228 l 64 228 b 378 0 106 96 232 0 l 378 0 b 707 329 560 0 707 146 l 707 939 l 707 939 b 674 972 707 957 692 972 l 674 972 b 640 939 656 972 640 957 l 640 329 l 640 329 b 378 68 640 185 522 68 l 378 68 b 128 250 261 67 163 143 l 128 250 b 86 271 124 267 104 276 l 86 271 b 64 228 68 265 58 246 z "},"K":{"ha":993,"x_min":0,"x_max":0,"o":"m 144 33 b 178 0 144 15 160 0 b 213 33 197 0 213 15 l 213 276 l 426 490 l 803 13 b 828 0 810 3 818 0 b 850 7 836 0 843 1 b 856 56 864 21 867 40 l 475 539 l 847 911 b 847 960 861 925 861 947 b 800 960 836 972 814 972 l 213 372 l 213 935 b 178 969 213 954 197 969 b 144 935 160 969 144 954 l 144 33 z "},"L":{"ha":782,"x_min":0,"x_max":0,"o":"m 678 0 b 713 33 697 0 713 15 b 678 68 713 53 697 68 l 213 68 l 213 939 b 178 972 213 957 197 972 b 144 939 160 972 144 957 l 144 33 b 178 0 144 15 160 0 l 181 0 z "},"M":{"ha":1172,"x_min":0,"x_max":0,"o":"m 894 33 b 928 0 894 15 908 0 b 961 33 946 0 961 15 l 961 933 b 956 951 961 939 958 946 b 946 963 953 956 950 958 b 899 954 931 972 908 969 l 554 475 l 208 954 b 161 963 197 969 176 972 b 158 960 160 961 158 961 b 144 933 150 954 144 944 l 144 33 b 179 0 144 15 160 0 b 213 33 197 0 213 15 l 213 832 l 524 401 b 553 386 531 390 540 386 l 556 386 b 583 401 565 386 576 390 l 894 833 l 894 33 z "},"N":{"ha":1071,"x_min":0,"x_max":0,"o":"m 799 18 b 804 13 800 15 803 14 b 831 0 811 4 819 0 b 865 33 850 0 865 15 l 865 929 b 831 963 865 947 850 963 b 797 929 813 963 797 947 l 797 138 l 208 954 b 161 963 199 969 176 972 b 149 925 149 953 144 939 l 149 33 b 182 0 149 15 164 0 b 215 33 200 0 215 15 l 215 829 l 799 18 z "},"O":{"ha":1181,"x_min":0,"x_max":0,"o":"m 101 493 l 101 493 b 571 0 103 221 308 0 l 571 0 b 1036 493 831 0 1035 221 l 1036 493 b 571 986 1035 765 831 986 l 571 986 b 101 493 308 986 103 765 z m 169 493 l 169 493 b 571 917 169 733 350 917 l 571 917 b 967 493 785 917 965 733 l 967 493 b 571 68 965 256 785 68 l 571 68 b 169 493 350 68 169 256 z "},"P":{"ha":810,"x_min":0,"x_max":0,"o":"m 144 33 b 178 0 144 15 160 0 b 213 33 197 0 213 15 l 213 415 l 453 418 b 729 694 606 418 729 542 b 453 972 729 847 606 972 l 182 972 l 178 972 b 144 939 160 972 144 957 z m 213 483 l 213 904 l 453 904 b 663 694 568 904 663 810 b 453 483 663 579 568 485 z "},"Q":{"ha":1172,"x_min":0,"x_max":0,"o":"m 1117 -68 b 1068 -62 1104 -53 1083 -51 b 892 -132 1003 -112 946 -132 b 683 -60 824 -132 754 -103 b 599 -29 657 -44 626 -35 l 739 36 b 739 36 739 36 739 36 b 1025 492 907 113 1025 288 b 558 986 1025 763 818 985 b 92 492 299 985 92 763 b 497 1 92 243 267 33 l 368 -57 b 353 -103 351 -65 344 -86 b 363 -118 354 -108 358 -112 b 364 -118 364 -118 364 -118 b 364 -118 364 -118 364 -118 b 403 -121 376 -126 389 -128 b 404 -121 403 -121 403 -121 b 533 -90 414 -112 469 -90 b 650 -121 569 -90 608 -97 b 892 -200 724 -164 803 -200 b 893 -200 893 -200 893 -200 b 1113 -118 963 -200 1036 -176 b 1117 -68 1126 -106 1128 -83 z m 161 492 b 558 915 161 729 342 915 b 956 492 775 915 956 729 b 558 67 956 256 775 67 b 161 492 342 67 161 256 z "},"R":{"ha":868,"x_min":0,"x_max":0,"o":"m 654 60 b 717 15 669 29 699 15 l 719 15 b 736 17 728 15 735 17 b 758 61 754 24 763 43 b 721 83 753 76 736 85 b 707 107 719 85 713 90 b 694 219 700 128 694 163 b 564 436 694 329 628 400 b 550 443 558 439 554 440 b 710 694 644 488 710 583 b 433 972 710 849 586 972 l 163 972 l 158 972 l 156 972 b 125 939 139 971 125 956 l 125 33 b 158 0 125 15 140 0 b 193 33 178 0 193 15 l 193 418 l 429 418 b 436 415 431 418 432 417 b 549 367 454 413 506 397 b 628 219 592 335 628 290 b 654 60 628 138 638 92 z m 643 694 b 439 485 643 581 551 488 l 426 485 l 193 485 l 193 904 l 433 904 b 643 694 549 904 643 811 z "},"S":{"ha":926,"x_min":0,"x_max":0,"o":"m 104 139 l 104 139 b 463 -1 185 75 314 0 l 463 -1 b 713 75 560 -1 647 28 l 713 75 b 822 269 778 122 822 192 l 822 269 b 715 453 822 347 779 411 l 715 453 b 468 542 651 496 565 524 l 465 542 l 465 542 b 257 615 378 558 306 582 l 257 615 b 185 733 208 649 186 685 l 185 733 b 261 867 185 783 213 831 l 261 867 b 460 925 310 901 381 925 l 460 925 b 726 822 567 925 650 872 l 726 822 b 768 831 740 813 760 817 l 768 831 b 760 874 778 846 774 864 l 760 874 b 460 986 683 924 588 986 l 460 986 b 225 915 368 986 286 960 l 225 915 b 124 733 164 871 124 807 l 124 733 b 224 564 124 661 164 603 l 224 564 b 453 482 283 524 363 499 l 456 482 l 456 482 b 681 403 550 464 628 438 l 681 403 b 760 269 733 367 760 325 l 760 269 b 676 125 760 215 731 164 l 676 125 b 463 61 624 86 547 61 l 463 61 b 143 186 336 60 215 128 l 143 186 b 100 182 131 197 111 196 l 100 182 b 104 139 90 169 92 150 z "},"T":{"ha":900,"x_min":0,"x_max":0,"o":"m 396 33 b 429 0 396 15 411 0 b 463 33 447 0 463 15 l 463 904 l 756 904 b 789 939 774 904 789 919 b 756 972 789 957 774 972 l 103 972 b 69 939 85 972 69 957 b 103 904 69 919 85 904 l 396 904 l 396 33 z "},"U":{"ha":1131,"x_min":0,"x_max":0,"o":"m 146 393 l 146 393 b 538 0 146 176 322 0 l 538 0 b 932 393 756 0 932 176 l 932 939 l 932 939 b 897 972 932 957 917 972 l 897 972 b 864 939 879 972 864 957 l 864 939 l 864 393 l 864 393 b 538 68 864 214 718 69 l 538 68 b 214 393 360 69 214 214 l 214 939 l 214 939 b 179 972 214 957 199 972 l 179 972 b 146 939 161 972 146 957 l 146 393 z "},"V":{"ha":1042,"x_min":0,"x_max":0,"o":"m 481 3 b 482 1 481 3 481 1 b 494 0 485 0 490 0 b 507 3 499 0 503 1 l 508 3 b 528 31 519 7 526 18 l 904 919 b 886 964 911 936 903 957 b 843 947 869 972 849 964 l 494 119 l 147 947 b 103 964 140 964 119 972 b 85 919 86 957 78 936 l 461 24 l 463 22 b 464 19 463 21 463 19 b 481 3 467 11 472 6 z "},"W":{"ha":1531,"x_min":0,"x_max":0,"o":"m 108 964 b 92 919 92 957 83 936 l 467 28 b 475 11 468 21 471 15 l 476 10 l 479 7 b 500 0 485 3 492 0 b 519 6 507 0 514 1 b 522 7 519 6 521 7 b 529 17 525 10 528 13 b 532 24 531 18 532 21 l 781 611 l 1028 24 b 1029 19 1029 22 1029 21 b 1035 11 1031 17 1033 13 b 1040 6 1036 8 1039 7 b 1057 0 1046 1 1051 0 l 1061 0 l 1064 0 b 1092 22 1074 1 1086 10 l 1469 919 b 1453 964 1478 936 1469 957 b 1407 947 1433 972 1415 964 l 1060 121 l 814 706 b 779 726 807 718 794 726 b 747 706 767 726 754 718 l 500 121 l 153 947 b 108 964 146 964 125 972 z "},"X":{"ha":1003,"x_min":0,"x_max":0,"o":"m 119 7 b 140 0 126 3 133 0 b 167 15 150 0 161 6 l 468 428 l 769 15 b 797 0 776 6 786 0 b 817 7 804 0 810 3 b 824 54 832 18 836 39 l 510 483 l 824 913 b 817 960 836 928 832 950 b 769 954 801 972 782 969 l 468 540 l 167 954 b 119 960 157 969 135 972 b 114 913 104 950 101 928 l 426 483 l 114 54 b 119 7 101 39 104 18 z "},"Y":{"ha":839,"x_min":0,"x_max":0,"o":"m 411 33 b 444 0 411 15 426 0 b 478 33 464 0 478 15 l 478 469 l 803 913 b 796 960 814 928 811 950 b 749 954 781 972 758 969 l 443 536 l 139 954 b 92 960 129 969 107 972 b 85 913 78 950 75 928 l 411 467 l 411 33 z "},"Z":{"ha":926,"x_min":0,"x_max":0,"o":"m 115 7 b 124 1 118 4 121 3 b 133 0 126 1 131 0 l 136 0 l 793 0 b 826 33 811 0 826 15 b 793 68 826 54 811 68 l 201 68 l 819 913 b 819 954 829 925 829 943 b 810 961 817 957 813 960 b 782 967 801 967 792 969 l 136 967 b 103 933 118 967 103 951 b 136 900 103 915 118 900 l 725 900 l 113 58 b 104 46 110 56 107 51 b 115 7 99 32 103 15 z "},"&":{"ha":967,"x_min":0,"x_max":0,"o":"m 68 318 b 386 0 68 143 211 0 b 704 318 561 0 704 143 b 697 383 704 340 701 363 b 738 406 711 389 724 396 b 785 510 767 426 788 464 b 781 561 785 525 783 542 b 739 586 775 578 758 590 b 714 546 721 582 708 564 b 717 510 717 532 717 519 b 697 458 717 481 708 469 b 658 443 688 451 674 446 l 649 443 l 644 443 l 636 443 b 588 446 621 446 603 446 b 385 382 488 446 424 421 b 336 264 344 344 336 297 b 343 214 336 236 342 215 b 376 190 347 199 360 190 b 386 192 379 190 382 190 b 408 235 403 197 413 215 b 404 264 407 240 404 250 b 432 335 404 286 410 313 b 588 378 454 357 499 378 b 629 375 600 378 614 378 b 636 318 633 357 636 338 b 386 68 636 181 524 68 b 136 318 249 68 136 181 b 271 540 136 415 190 497 b 282 546 275 542 278 543 b 294 563 288 550 293 556 b 283 603 301 576 296 593 b 213 738 242 632 213 682 b 379 904 213 831 288 904 b 546 738 471 904 546 831 b 579 704 546 719 561 704 b 614 738 599 704 614 719 b 379 972 614 868 508 972 b 144 738 250 972 144 868 b 206 581 144 678 167 622 b 68 318 122 522 68 425 z "}," ":{"ha":417,"x_min":0,"x_max":0,"o":""}," ":{"ha":417,"x_min":0,"x_max":0,"o":""},"a":{"ha":860,"x_min":0,"x_max":0,"o":"m 667 681 b 633 647 649 681 633 667 l 633 547 b 378 681 575 628 482 681 b 56 340 199 681 56 526 b 378 0 56 154 199 0 b 633 135 482 0 575 54 l 633 33 b 667 0 633 15 649 0 b 700 33 685 0 700 15 l 700 647 b 667 681 700 667 685 681 z m 378 67 b 122 340 239 67 122 188 b 378 615 122 493 239 615 b 633 340 518 615 633 493 b 378 67 633 188 518 67 z "},"b":{"ha":917,"x_min":0,"x_max":0,"o":"m 129 33 b 163 0 129 15 144 0 b 197 33 182 0 197 15 l 197 132 b 458 0 257 51 351 0 b 788 339 642 0 788 153 b 458 681 788 528 642 681 b 197 547 351 681 257 628 l 197 939 b 163 972 197 957 182 972 b 129 939 144 972 129 957 l 129 353 l 129 339 l 129 325 z m 197 350 b 458 613 203 496 318 613 b 719 339 603 613 719 490 b 458 68 719 189 603 68 b 197 339 315 68 197 189 z "},"c":{"ha":793,"x_min":0,"x_max":0,"o":"m 431 0 l 431 0 b 431 0 431 0 431 0 l 431 0 b 644 72 511 0 588 28 l 644 72 b 651 121 661 85 664 106 l 651 121 b 606 126 640 133 621 138 l 606 126 l 606 126 b 431 67 557 89 496 67 l 431 67 b 147 342 272 67 147 189 l 147 342 b 431 615 147 492 272 615 l 431 615 b 606 554 496 615 557 593 l 606 554 b 651 560 621 543 640 547 l 651 560 b 647 606 664 575 661 596 l 647 606 b 431 681 588 653 511 681 l 431 681 b 81 342 236 681 81 531 l 81 342 b 431 0 81 150 236 0 z "},"d":{"ha":917,"x_min":0,"x_max":0,"o":"m 674 33 b 708 0 674 15 689 0 b 742 33 726 0 742 15 l 742 339 l 742 353 l 742 939 b 708 972 742 957 726 972 b 674 939 689 972 674 957 l 674 547 b 413 681 614 628 519 681 b 83 339 229 681 83 528 b 413 0 83 153 229 0 b 674 132 519 0 614 51 z m 413 68 b 151 339 269 68 151 189 b 413 613 151 490 269 613 b 674 350 553 613 668 496 l 674 328 b 413 68 668 183 553 68 z "},"e":{"ha":846,"x_min":0,"x_max":0,"o":"m 411 0 b 686 154 526 0 628 61 b 675 201 696 171 690 190 b 631 190 661 210 640 207 b 411 67 585 114 501 67 b 147 328 271 67 154 179 l 706 328 b 739 358 724 328 739 340 l 739 363 l 739 364 b 411 681 725 542 586 681 b 81 339 228 681 81 528 b 411 0 81 153 228 0 z m 411 614 b 667 393 536 614 644 521 l 151 393 b 411 614 176 522 283 614 z "},"f":{"ha":503,"x_min":0,"x_max":0,"o":"m 396 971 b 258 922 342 971 292 958 b 214 764 226 885 215 833 l 214 692 l 124 692 b 90 658 106 692 90 676 b 124 624 90 639 106 624 l 214 624 l 214 32 b 249 -1 214 14 229 -1 b 282 32 267 -1 282 14 l 282 624 l 378 624 b 413 658 397 624 413 639 b 378 692 413 676 397 692 l 282 692 l 282 764 b 310 876 282 826 294 860 b 396 903 324 893 349 903 b 429 936 414 903 429 918 b 396 971 429 956 414 971 z "},"g":{"ha":917,"x_min":0,"x_max":0,"o":"m 724 647 b 692 681 724 665 708 681 b 657 647 672 681 657 665 l 657 647 l 657 547 b 403 681 600 628 507 681 b 83 343 225 681 83 526 b 403 4 83 156 225 4 b 657 138 507 4 600 56 l 657 54 b 403 -199 657 -86 544 -199 b 292 -174 361 -199 326 -190 b 247 -189 275 -164 256 -171 b 261 -233 239 -204 247 -224 b 403 -265 306 -253 353 -265 b 724 54 581 -265 724 -122 l 724 647 z m 403 69 b 150 343 264 69 150 190 b 403 614 150 494 264 614 b 657 343 543 614 657 494 b 403 69 657 190 543 69 z "},"h":{"ha":851,"x_min":0,"x_max":0,"o":"m 629 33 b 663 0 629 15 644 0 b 697 33 682 0 697 15 l 697 413 b 413 681 697 569 569 681 b 197 581 326 681 249 642 l 197 939 b 163 972 197 957 182 972 b 129 939 144 972 129 957 l 129 424 l 129 413 l 129 33 b 131 22 129 29 129 26 b 136 11 132 18 133 15 b 163 0 143 4 153 0 l 167 0 l 169 0 b 172 1 171 0 172 1 b 193 18 182 4 189 10 b 196 24 194 19 194 21 b 197 29 196 25 197 26 l 197 33 l 197 413 b 413 613 197 532 294 613 b 629 413 532 613 629 532 l 629 33 z "},"i":{"ha":390,"x_min":0,"x_max":0,"o":"m 131 33 l 131 33 b 164 0 131 15 146 0 l 164 0 b 199 33 183 0 199 15 l 199 647 l 199 647 b 164 681 199 667 183 681 l 164 681 b 131 647 146 681 131 667 z m 131 838 l 131 838 b 164 801 131 818 146 801 l 164 801 b 199 838 183 801 199 818 l 199 869 l 199 869 b 164 903 199 888 183 903 l 164 903 b 131 869 146 903 131 888 z "},"j":{"ha":346,"x_min":0,"x_max":0,"o":"m 79 838 l 79 838 b 114 803 79 819 97 803 l 114 803 b 147 838 132 803 147 819 l 147 869 l 147 869 b 114 903 147 888 132 903 l 114 903 b 79 869 97 903 79 888 z m -7 -233 l -7 -233 b 26 -265 -7 -251 7 -265 l 26 -265 b 144 -147 93 -265 144 -214 l 144 646 l 144 646 b 111 681 144 665 129 681 l 111 681 b 76 646 93 681 76 665 l 76 -147 l 76 -147 b 26 -199 76 -175 53 -199 l 26 -199 b -7 -233 7 -199 -7 -214 z "},"k":{"ha":778,"x_min":0,"x_max":0,"o":"m 129 33 b 163 0 129 15 144 0 b 197 33 182 0 197 15 l 197 189 l 336 328 l 597 13 b 624 0 603 3 614 0 b 646 7 631 0 639 1 b 649 56 660 21 661 40 l 385 376 l 647 639 b 647 686 661 653 661 674 b 600 686 633 700 614 700 l 197 285 l 197 939 b 163 972 197 957 182 972 b 129 939 144 972 129 957 l 129 33 z "},"l":{"ha":346,"x_min":0,"x_max":0,"o":"m 139 33 l 139 33 b 172 0 139 15 154 0 l 172 0 b 207 33 192 0 207 15 l 207 939 l 207 939 b 172 972 207 957 192 972 l 172 972 b 139 939 154 972 139 957 l 139 33 z "},"m":{"ha":1321,"x_min":0,"x_max":0,"o":"m 1103 32 b 1135 0 1103 15 1117 0 b 1168 32 1154 0 1168 15 l 1168 403 b 892 679 1168 556 1044 679 b 647 535 788 679 696 621 b 404 679 600 621 510 679 b 194 582 319 679 244 642 l 194 647 b 161 679 194 665 181 679 b 129 647 144 679 129 665 l 129 414 l 129 403 l 129 32 l 129 25 b 157 0 133 13 144 1 l 161 0 l 165 0 b 171 1 168 0 169 0 b 179 6 174 1 178 4 b 194 32 189 11 194 21 l 194 403 b 404 614 194 518 288 614 b 614 403 521 614 614 518 l 614 32 l 614 29 l 614 25 b 615 21 615 24 615 22 b 617 18 617 19 617 18 b 618 15 618 17 618 17 b 621 13 619 15 619 14 l 625 8 b 629 6 626 7 628 6 b 638 1 632 4 635 1 b 640 0 638 1 639 0 l 643 0 l 647 0 b 664 4 653 0 658 1 b 681 22 671 8 678 14 l 681 25 b 682 28 681 25 682 26 l 682 32 l 682 403 b 892 614 682 518 776 614 b 1103 403 1008 614 1100 518 l 1103 32 z "},"n":{"ha":851,"x_min":0,"x_max":0,"o":"m 615 33 b 649 0 615 14 631 0 b 682 33 667 0 682 14 l 682 403 b 406 679 682 554 558 679 b 194 581 321 679 244 640 l 194 646 b 163 679 194 664 181 679 b 129 646 143 679 129 664 l 129 414 l 129 403 l 129 33 l 129 25 b 131 22 129 25 131 24 b 132 18 131 21 131 19 b 154 0 136 10 144 3 l 163 0 b 188 13 172 0 182 4 b 194 28 192 17 193 22 l 194 33 l 194 403 b 406 613 197 518 290 613 b 615 403 522 613 615 518 l 615 33 z "},"o":{"ha":868,"x_min":0,"x_max":0,"o":"m 97 340 l 97 340 b 419 0 97 156 242 0 l 419 0 b 742 340 599 0 742 156 l 742 340 b 419 681 742 525 599 681 l 419 681 b 97 340 242 681 97 525 z m 164 340 l 164 340 b 419 615 164 492 281 615 l 419 615 b 675 340 558 615 675 492 l 675 340 b 419 67 675 189 558 67 l 419 67 b 164 340 281 67 164 189 z "},"p":{"ha":917,"x_min":0,"x_max":0,"o":"m 129 -251 b 163 -285 129 -269 144 -285 b 197 -251 182 -285 197 -269 l 197 138 b 456 4 256 57 350 4 b 785 343 639 4 785 158 b 456 681 785 529 639 681 b 197 549 350 681 256 628 l 197 647 b 163 681 197 665 182 681 b 129 647 144 681 129 665 l 129 357 l 129 343 l 129 329 z m 197 354 b 456 613 203 499 318 613 b 717 343 600 613 717 493 b 456 71 717 193 600 72 b 197 343 315 72 197 193 z "},"q":{"ha":917,"x_min":0,"x_max":0,"o":"m 671 -251 b 704 -285 671 -269 686 -285 b 739 -251 725 -285 739 -269 l 739 329 l 739 343 l 739 357 l 739 647 b 704 681 739 665 725 681 b 671 647 686 681 671 665 l 671 547 b 410 681 611 628 517 681 b 83 343 231 681 83 529 b 410 3 83 158 231 4 b 671 138 517 3 611 57 z m 151 343 b 410 613 151 494 268 613 b 671 343 554 613 671 494 b 410 71 671 193 554 72 b 151 343 268 72 151 193 z "},"r":{"ha":610,"x_min":0,"x_max":0,"o":"m 129 33 b 164 0 129 14 144 0 b 196 33 181 0 196 14 l 196 332 b 199 343 196 335 196 338 b 281 501 208 371 235 440 b 478 613 328 563 389 613 b 511 646 496 613 511 628 b 478 679 511 665 496 679 b 206 513 347 679 257 593 b 196 496 201 507 199 501 l 196 646 b 164 679 196 665 181 679 b 129 646 144 679 129 665 l 129 33 z "},"s":{"ha":683,"x_min":0,"x_max":0,"o":"m 86 97 l 86 97 b 338 0 142 53 228 1 l 338 0 b 507 54 404 0 460 19 l 507 54 b 585 192 553 89 585 135 l 585 192 b 508 331 585 249 553 301 l 508 331 b 343 386 461 357 408 376 l 340 386 l 340 386 b 201 433 278 396 232 413 l 201 433 b 163 501 175 454 163 474 l 163 501 b 206 579 163 529 178 557 l 206 579 b 335 618 235 603 279 618 l 335 618 b 501 550 401 618 451 583 l 501 550 b 547 560 517 540 538 544 l 547 560 b 538 607 557 575 553 596 l 538 607 b 335 681 485 640 422 681 l 335 681 b 168 635 265 681 208 663 l 168 635 b 94 501 125 603 94 556 l 94 501 b 168 379 94 449 125 404 l 168 379 b 322 326 207 351 261 338 l 325 325 l 325 325 b 469 275 392 314 440 297 l 469 275 b 518 192 504 246 517 224 l 518 192 b 467 108 518 161 500 131 l 467 108 b 338 67 436 83 390 67 l 338 67 b 129 146 251 67 176 111 l 129 146 b 82 142 114 158 93 156 l 82 142 b 86 97 71 128 72 110 z "},"t":{"ha":556,"x_min":0,"x_max":0,"o":"m 333 681 l 246 681 l 246 933 b 210 967 246 950 228 967 b 176 933 193 967 176 950 l 176 681 l 92 681 b 58 647 58 681 58 664 b 92 614 58 631 58 614 l 176 614 l 176 118 b 296 0 176 50 228 0 b 331 33 313 0 331 17 b 296 68 331 50 313 68 b 246 118 279 68 246 85 l 246 614 l 333 614 b 367 647 350 614 367 631 b 333 681 367 664 350 681 z "},"u":{"ha":851,"x_min":0,"x_max":0,"o":"m 115 278 l 115 278 b 390 0 115 125 238 0 l 390 0 b 669 278 546 0 669 125 l 669 649 l 669 649 b 635 682 669 668 654 682 l 635 682 b 601 649 618 682 601 668 l 601 649 l 601 278 l 601 278 b 390 67 601 161 507 68 l 390 67 b 182 278 275 68 182 161 l 182 649 l 182 649 b 149 682 182 668 167 682 l 149 682 b 115 649 131 682 115 668 l 115 278 z "},"v":{"ha":808,"x_min":0,"x_max":0,"o":"m 354 3 b 357 1 356 1 356 1 b 368 0 361 0 364 0 b 390 10 375 0 385 3 b 399 26 394 15 397 21 l 653 629 b 636 672 660 646 653 665 b 593 654 619 679 599 671 l 367 118 l 140 654 b 97 672 135 671 114 679 b 81 629 82 665 74 646 l 336 21 b 347 6 339 14 343 10 b 354 3 350 4 351 3 z "},"w":{"ha":1196,"x_min":0,"x_max":0,"o":"m 363 3 b 375 0 367 1 371 0 b 404 21 386 0 400 8 b 406 24 404 22 406 24 l 563 399 l 721 22 l 722 21 b 749 0 725 10 738 1 l 753 0 l 756 0 b 772 7 761 0 767 3 b 785 24 778 11 782 17 l 1039 629 b 1021 672 1046 646 1038 665 b 978 654 1006 679 985 671 l 753 118 l 596 492 b 563 513 590 504 576 513 b 531 492 550 513 536 504 l 374 118 l 147 654 b 104 672 142 671 121 679 b 88 629 89 665 81 646 l 343 21 b 357 6 346 14 350 8 b 363 3 358 4 360 3 z "},"x":{"ha":792,"x_min":0,"x_max":0,"o":"m 110 7 b 129 0 117 3 124 0 b 156 14 139 0 150 4 l 353 282 l 549 14 b 576 0 554 4 565 0 b 593 7 582 0 589 3 b 603 53 610 18 613 38 l 393 338 l 603 624 b 593 671 613 640 610 660 b 549 663 581 681 560 678 l 353 394 l 156 663 b 110 671 146 678 124 681 b 103 624 96 660 93 640 l 311 338 l 103 53 b 110 7 93 38 96 18 z "},"y":{"ha":817,"x_min":0,"x_max":0,"o":"m 72 279 b 347 1 72 126 196 3 b 558 99 432 1 507 40 l 558 54 b 301 -199 557 -86 443 -199 b 190 -172 263 -199 224 -189 b 147 -189 174 -168 156 -172 b 161 -233 139 -204 146 -224 b 301 -265 204 -253 251 -265 b 625 54 481 -265 625 -124 l 625 267 l 625 279 l 625 649 b 621 663 625 653 624 658 b 613 674 619 667 615 671 b 596 681 607 676 601 679 l 592 681 l 588 681 b 583 679 586 681 585 679 l 581 679 b 568 671 576 678 571 675 b 565 669 567 671 567 669 b 564 665 565 668 564 667 b 558 649 560 661 558 654 l 558 279 b 347 69 557 163 464 69 b 139 279 232 69 139 163 l 139 649 b 104 681 139 667 124 681 b 72 649 88 681 72 667 l 72 279 z "},"z":{"ha":769,"x_min":0,"x_max":0,"o":"m 497 608 l 96 58 b 85 35 89 53 85 44 l 85 33 b 86 21 85 29 85 25 b 88 19 86 21 88 21 b 118 0 92 8 104 0 l 563 0 b 596 33 581 0 596 14 b 563 67 596 53 581 67 l 182 67 l 582 615 b 594 633 589 619 593 626 b 588 664 599 644 596 656 l 586 665 l 582 669 b 558 675 575 674 567 676 l 118 675 b 85 642 100 675 85 661 b 118 608 85 624 100 608 z "},"!":{"ha":350,"x_min":0,"x_max":0,"o":"m 129 242 l 129 242 b 163 207 129 222 144 207 l 163 207 b 197 242 182 207 197 222 l 197 939 l 197 939 b 163 972 197 957 182 972 l 163 972 b 129 939 144 972 129 957 z m 129 33 l 129 33 b 163 0 129 15 144 0 l 163 0 b 197 33 182 0 197 15 l 197 67 l 197 67 b 163 100 197 85 182 100 l 163 100 b 129 67 144 100 129 85 z "},"(":{"ha":597,"x_min":0,"x_max":0,"o":"m 165 39 l 165 39 b 404 -135 210 -62 292 -135 l 404 -135 b 407 -135 406 -135 406 -135 l 407 -135 b 444 -96 428 -135 444 -118 l 444 -96 b 407 -57 444 -75 428 -57 l 407 -57 b 235 72 328 -57 276 -14 l 235 72 b 176 421 196 157 176 282 l 176 421 b 235 769 176 560 196 685 l 235 769 b 407 899 276 856 328 897 l 407 899 b 444 938 428 899 444 917 l 444 938 b 407 976 444 958 428 976 l 407 976 b 165 803 293 976 211 904 l 165 803 b 99 421 118 700 99 567 l 99 421 b 165 39 99 275 118 140 z "},")":{"ha":597,"x_min":0,"x_max":0,"o":"m 363 39 b 429 421 410 140 429 275 l 429 421 b 363 803 429 567 410 700 l 363 803 b 121 976 317 904 235 976 l 121 976 b 83 938 100 976 83 958 l 83 938 b 121 899 83 917 100 899 l 121 899 b 293 769 200 897 251 856 l 293 769 b 351 421 332 685 351 560 l 351 421 b 293 72 351 282 332 157 l 293 72 b 121 -57 251 -14 200 -57 l 121 -57 b 83 -96 100 -57 83 -75 l 83 -96 b 121 -135 83 -118 100 -135 l 121 -135 b 124 -135 122 -135 122 -135 l 124 -135 b 363 39 236 -135 318 -62 z "},"+":{"ha":861,"x_min":0,"x_max":0,"o":"m 390 186 b 436 139 390 160 410 139 b 483 186 463 139 483 160 l 483 440 l 738 440 b 783 486 763 440 783 460 b 738 533 783 513 763 533 l 483 533 l 483 788 b 436 833 483 813 463 833 b 390 788 410 833 390 813 l 390 533 l 136 533 b 89 486 110 533 89 513 b 136 440 89 460 110 440 l 390 440 l 390 186 z "},"<":{"ha":861,"x_min":0,"x_max":0,"o":"m 536 13 b 564 0 544 4 554 0 b 593 13 575 0 586 4 b 593 67 607 28 607 51 l 179 483 l 593 899 b 593 957 607 915 607 940 b 536 957 578 972 551 971 l 97 513 l 96 511 l 92 507 b 88 500 90 506 89 503 b 85 490 86 496 85 493 b 85 478 83 486 83 482 b 86 471 85 475 85 474 b 88 467 86 469 86 468 b 89 464 88 467 88 465 b 96 456 90 461 93 458 l 97 454 l 536 13 z "},">":{"ha":861,"x_min":0,"x_max":0,"o":"m 138 13 b 167 0 146 4 156 0 b 194 13 176 0 188 4 l 633 454 l 635 456 b 638 458 636 457 638 457 b 646 483 643 465 646 475 b 635 511 646 493 642 504 l 633 513 l 194 957 b 138 957 179 971 153 972 b 138 899 124 940 124 915 l 551 483 l 138 67 b 138 13 124 51 124 28 z "},"A":{"ha":897,"x_min":0,"x_max":0,"o":"m 763 22 b 794 0 768 8 782 0 b 807 1 799 0 801 1 b 825 46 824 8 832 29 l 488 947 b 454 968 483 960 469 968 b 421 947 440 968 426 960 l 83 46 b 103 1 76 29 86 8 b 115 0 107 1 113 0 b 147 22 129 0 142 8 l 233 251 l 676 251 z m 456 842 l 651 319 l 258 319 z "},".":{"ha":319,"x_min":0,"x_max":0,"o":"m 114 69 b 183 0 114 31 144 0 b 253 69 222 0 253 31 b 183 139 253 108 222 139 b 114 69 144 139 114 108 z "},"?":{"ha":742,"x_min":0,"x_max":0,"o":"m 288 225 b 319 193 288 207 303 193 b 353 225 338 193 353 207 l 353 374 b 619 671 503 390 619 518 b 319 972 619 838 485 972 b 61 822 208 972 113 913 b 72 778 51 807 56 788 b 117 789 88 768 108 775 b 319 907 157 861 232 907 b 554 671 450 906 554 803 b 319 436 554 542 450 436 b 288 404 303 436 288 422 l 288 403 l 288 399 z m 288 32 b 319 0 288 14 303 0 b 353 32 338 0 353 14 l 353 63 b 319 96 353 81 338 96 b 288 63 303 96 288 81 z "},"=":{"ha":861,"x_min":0,"x_max":0,"o":"m 149 297 l 149 297 l 643 297 l 643 297 b 682 336 665 297 682 314 l 682 336 b 643 374 682 356 665 374 l 149 374 l 149 374 b 110 336 126 374 110 356 l 110 336 b 149 297 110 314 126 297 z m 149 597 l 149 597 l 643 597 l 643 597 b 682 635 665 597 682 614 l 682 635 b 643 674 682 657 665 674 l 149 674 l 149 674 b 110 635 126 674 110 657 l 110 635 b 149 597 110 614 126 597 z "},"-":{"ha":567,"x_min":0,"x_max":0,"o":"m 118 456 l 118 456 l 414 456 l 414 456 b 440 483 428 456 440 467 l 440 483 b 414 508 440 499 428 508 l 118 508 l 118 508 b 92 483 103 508 92 499 l 92 483 b 118 456 92 467 103 456 z "},"­":{"ha":567,"x_min":0,"x_max":0,"o":"m 118 456 l 118 456 l 414 456 l 414 456 b 440 483 428 456 440 467 l 440 483 b 414 508 440 499 428 508 l 118 508 l 118 508 b 92 483 103 508 92 499 l 92 483 b 118 456 92 467 103 456 z "},"/":{"ha":586,"x_min":0,"x_max":0,"o":"m 126 1 l 126 1 b 140 0 131 0 135 0 l 140 0 b 171 21 153 0 165 7 l 550 921 l 550 921 b 532 965 558 939 550 958 l 532 965 b 488 947 514 972 496 964 l 108 47 l 108 47 b 126 1 101 29 110 10 z "},":":{"ha":333,"x_min":0,"x_max":0,"o":"m 121 69 b 190 0 121 31 151 0 b 260 69 229 0 260 31 b 190 139 260 108 229 139 b 121 69 151 139 121 108 z m 121 653 b 190 583 121 614 151 583 b 260 653 229 583 260 614 b 190 722 260 692 229 722 b 121 653 151 722 121 692 z "},";":{"ha":333,"x_min":0,"x_max":0,"o":"m 94 651 b 164 582 94 613 125 582 b 233 651 203 582 233 613 b 164 721 233 690 203 721 b 94 651 125 721 94 690 z m 82 -125 b 103 -146 82 -139 93 -146 b 175 -101 115 -146 150 -126 b 213 43 200 -76 213 -35 l 213 78 b 167 124 213 104 193 124 b 121 78 140 124 121 104 l 121 49 b 158 0 121 21 138 6 b 93 -107 163 -49 143 -79 b 82 -125 86 -111 82 -118 z "},";":{"ha":333,"x_min":0,"x_max":0,"o":"m 94 651 b 164 582 94 613 125 582 b 233 651 203 582 233 613 b 164 721 233 690 203 721 b 94 651 125 721 94 690 z m 82 -125 b 103 -146 82 -139 93 -146 b 175 -101 115 -146 150 -126 b 213 43 200 -76 213 -35 l 213 78 b 167 124 213 104 193 124 b 121 78 140 124 121 104 l 121 49 b 158 0 121 21 138 6 b 93 -107 163 -49 143 -79 b 82 -125 86 -111 82 -118 z "},",":{"ha":319,"x_min":0,"x_max":0,"o":"m 75 -125 b 96 -146 75 -139 86 -146 b 168 -101 108 -146 143 -126 b 206 43 193 -76 206 -35 l 206 78 b 160 124 206 104 186 124 b 114 78 133 124 114 104 l 114 49 b 151 0 114 21 131 6 b 86 -107 156 -49 136 -79 b 75 -125 79 -111 75 -118 z "},"'":{"ha":319,"x_min":0,"x_max":0,"o":"m 97 640 b 117 614 94 619 104 614 b 140 639 129 614 135 621 l 219 918 b 226 951 222 931 226 943 b 204 975 226 968 217 975 l 178 975 b 139 939 156 975 143 964 z "},"\"":{"ha":569,"x_min":0,"x_max":0,"o":"m 347 640 b 367 614 344 619 354 614 b 390 639 379 614 385 621 l 469 918 b 476 951 472 931 476 943 b 454 975 476 968 467 975 l 428 975 b 389 939 406 975 393 964 z m 97 640 b 117 614 94 619 104 614 b 140 639 129 614 135 621 l 219 918 b 226 951 222 931 226 943 b 204 975 226 968 217 975 l 178 975 b 139 939 156 975 143 964 z "},"_":{"ha":833,"x_min":0,"x_max":0,"o":"m -3 -222 l 836 -222 b 867 -192 853 -222 867 -208 b 836 -161 867 -175 853 -161 l -3 -161 b -33 -192 -19 -161 -33 -175 b -3 -222 -33 -208 -19 -222 z "},"*":{"ha":597,"x_min":0,"x_max":0,"o":"m 271 589 b 299 558 269 572 282 558 b 326 589 315 558 328 572 l 315 740 l 442 654 b 464 646 450 649 456 646 b 492 675 479 646 492 660 b 472 701 492 690 482 697 l 329 769 l 472 838 b 492 864 482 842 492 849 b 464 893 492 879 479 893 b 442 885 456 893 450 890 l 315 799 l 326 950 b 299 981 328 967 315 981 b 271 950 282 981 269 967 l 282 799 l 156 885 b 133 893 147 890 143 893 b 106 864 118 892 106 879 b 125 838 106 851 114 843 l 268 769 l 125 701 b 106 675 115 697 106 688 b 133 646 106 660 118 646 b 156 654 142 646 147 649 l 282 740 z "},"@":{"ha":1361,"x_min":0,"x_max":0,"o":"m 74 488 b 561 0 74 217 290 0 b 681 15 603 0 643 6 b 704 56 699 18 711 38 b 665 79 703 75 683 83 b 561 68 631 69 597 68 b 142 488 331 68 142 257 b 561 906 142 717 331 906 b 979 488 790 906 979 717 b 933 297 979 418 964 353 b 853 225 928 283 894 235 l 842 225 b 817 235 828 225 821 229 b 808 265 813 243 807 257 l 807 265 l 807 469 l 807 476 l 807 488 b 561 747 807 629 699 747 b 313 488 424 747 313 629 b 561 225 313 344 424 225 b 740 308 633 225 694 257 l 740 261 b 763 194 740 238 749 215 b 842 157 778 174 804 157 b 869 160 850 157 860 157 b 996 265 951 183 992 261 b 1047 488 1029 331 1047 406 b 561 974 1047 757 831 974 b 74 488 290 974 74 757 z m 385 488 b 561 679 385 593 464 679 b 739 488 657 679 739 593 b 561 297 739 381 657 297 b 385 488 464 297 385 381 z "},"\\":{"ha":622,"x_min":0,"x_max":0,"o":"m 517 4 b 535 50 533 13 542 32 l 535 50 l 156 950 b 111 968 147 967 129 975 l 111 968 b 93 924 93 961 85 942 l 93 924 l 472 24 b 503 3 478 10 490 3 l 503 3 b 517 4 508 3 513 3 l 517 4 z "},"“":{"ha":569,"x_min":0,"x_max":0,"o":"m 488 956 b 467 976 488 969 476 976 b 394 932 454 976 419 957 b 357 788 369 907 357 865 l 357 753 b 403 707 357 728 378 707 b 449 753 428 707 449 728 l 449 782 b 411 831 449 810 432 825 b 476 938 407 879 426 910 b 488 956 483 942 488 949 z m 238 956 b 217 976 238 969 226 976 b 144 932 204 976 169 957 b 107 788 119 907 107 865 l 107 753 b 153 707 107 728 128 707 b 199 753 178 707 199 728 l 199 782 b 161 831 199 810 182 825 b 226 938 157 879 176 910 b 238 956 233 942 238 949 z "},"”":{"ha":569,"x_min":0,"x_max":0,"o":"m 82 729 b 103 708 82 715 93 708 b 175 753 115 708 150 728 b 213 897 200 778 213 819 l 213 932 b 167 978 213 957 192 978 b 121 932 142 978 121 957 l 121 903 b 158 854 121 875 138 860 b 93 747 163 806 143 775 b 82 729 86 743 82 736 z m 332 729 b 353 708 332 715 343 708 b 425 753 365 708 400 728 b 463 897 450 778 463 819 l 463 932 b 417 978 463 957 442 978 b 371 932 392 978 371 957 l 371 903 b 408 854 371 875 388 860 b 343 747 413 806 393 775 b 332 729 336 743 332 736 z "},"‚":{"ha":319,"x_min":0,"x_max":0,"o":""},"‘":{"ha":319,"x_min":0,"x_max":0,"o":"m 238 956 b 217 976 238 969 226 976 b 144 932 204 976 169 957 b 107 788 119 907 107 865 l 107 753 b 153 707 107 728 128 707 b 199 753 178 707 199 728 l 199 782 b 161 831 199 810 182 825 b 226 938 157 879 176 910 b 238 956 233 942 238 949 z "},"’":{"ha":319,"x_min":0,"x_max":0,"o":"m 82 729 b 103 708 82 715 93 708 b 175 753 115 708 150 728 b 213 897 200 778 213 819 l 213 932 b 167 978 213 957 192 978 b 121 932 142 978 121 957 l 121 903 b 158 854 121 875 138 860 b 93 747 163 806 143 775 b 82 729 86 743 82 736 z "},"`":{"ha":694,"x_min":0,"x_max":0,"o":"m 397 822 b 415 835 407 822 415 828 b 410 850 415 840 413 846 l 324 979 b 285 1004 313 996 301 1004 b 226 972 258 1004 226 986 b 242 947 226 964 233 956 l 353 840 b 397 822 369 825 379 822 z "},"Ò":{"ha":1181,"x_min":0,"x_max":0,"o":"m 101 493 b 571 986 103 765 308 986 l 571 986 b 1036 493 831 986 1035 765 l 1036 493 b 571 0 1035 221 831 0 l 571 0 b 101 493 308 0 103 221 l 101 493 z m 169 493 b 571 68 169 256 350 68 l 571 68 b 967 493 785 68 965 256 l 967 493 b 571 917 965 733 785 917 l 571 917 b 169 493 350 917 169 733 l 169 493 z m 646 1100 b 664 1113 656 1100 664 1106 b 658 1128 664 1118 661 1124 l 572 1257 b 533 1282 561 1274 550 1282 b 475 1250 507 1282 475 1264 b 490 1225 475 1242 482 1233 l 601 1118 b 646 1100 618 1103 628 1100 z "},"Ù":{"ha":1056,"x_min":0,"x_max":0,"o":"m 129 393 l 129 939 b 163 972 129 957 144 972 l 163 972 b 197 939 182 972 197 957 l 197 939 l 197 393 b 521 68 197 214 343 69 l 521 68 b 847 393 701 69 847 214 l 847 393 l 847 939 l 847 939 b 881 972 847 957 863 972 l 881 972 b 915 939 900 972 915 957 l 915 939 l 915 393 b 521 0 915 176 739 0 l 521 0 b 129 393 306 0 129 176 l 129 393 z m 599 1100 b 617 1113 608 1100 617 1106 b 611 1128 617 1118 614 1124 l 525 1257 b 486 1282 514 1274 503 1282 b 428 1250 460 1282 428 1264 b 443 1225 428 1242 435 1233 l 554 1118 b 599 1100 571 1103 581 1100 z "},"…":{"ha":944,"x_min":0,"x_max":0,"o":"m 114 69 b 183 0 114 31 144 0 b 253 69 222 0 253 31 b 183 139 253 108 222 139 b 114 69 144 139 114 108 z m 429 69 b 499 0 429 31 460 0 b 568 69 538 0 568 31 b 499 139 568 108 538 139 b 429 69 460 139 429 108 z m 744 69 b 814 0 744 31 775 0 b 883 69 853 0 883 31 b 814 139 883 108 853 139 b 744 69 775 139 744 108 z "},"¨":{"ha":694,"x_min":0,"x_max":0,"o":"m 185 885 b 244 825 185 851 211 825 b 304 885 278 825 304 851 b 244 944 304 918 278 944 b 185 885 211 944 185 918 z m 414 885 b 474 825 414 851 440 825 b 533 885 507 825 533 851 b 474 944 533 918 507 944 b 414 885 440 944 414 918 z "},"à":{"ha":797,"x_min":0,"x_max":0,"o":"m 699 681 b 665 647 681 681 665 667 l 665 547 b 410 681 607 628 514 681 b 88 340 231 681 88 526 b 410 0 88 154 231 0 b 665 135 514 0 607 54 l 665 33 b 699 0 665 15 681 0 b 732 33 717 0 732 15 l 732 647 b 699 681 732 667 717 681 z m 410 67 b 154 340 271 67 154 188 b 410 615 154 493 271 615 b 665 340 550 615 665 493 b 410 67 665 188 550 67 z m 488 792 b 506 804 497 792 506 797 b 500 819 506 810 503 815 l 414 949 b 375 974 403 965 392 974 b 317 942 349 974 317 956 b 332 917 317 933 324 925 l 443 810 b 488 792 460 794 469 792 z "},"ò":{"ha":889,"x_min":0,"x_max":0,"o":"m 81 340 b 403 681 81 525 225 681 l 403 681 b 725 340 582 681 725 525 l 725 340 b 403 0 725 156 582 0 l 403 0 b 81 340 225 0 81 156 l 81 340 z m 147 340 b 403 67 147 189 264 67 l 403 67 b 658 340 542 67 658 189 l 658 340 b 403 615 658 492 542 615 l 403 615 b 147 340 264 615 147 492 l 147 340 z m 479 792 b 497 804 489 792 497 797 b 492 819 497 810 494 815 l 406 949 b 367 974 394 965 383 974 b 308 942 340 974 308 956 b 324 917 308 933 315 925 l 435 810 b 479 792 451 794 461 792 z "},"ù":{"ha":851,"x_min":0,"x_max":0,"o":"m 115 278 l 115 649 b 149 682 115 668 131 682 l 149 682 b 182 649 167 682 182 668 l 182 649 l 182 278 b 390 67 182 161 275 68 l 390 67 b 601 278 507 68 601 161 l 601 278 l 601 649 l 601 649 b 635 682 601 668 618 682 l 635 682 b 669 649 654 682 669 668 l 669 649 l 669 278 b 390 0 669 125 546 0 l 390 0 b 115 278 238 0 115 125 l 115 278 z m 468 792 b 486 804 478 792 486 797 b 481 819 486 810 483 815 l 394 949 b 356 974 383 965 372 974 b 297 942 329 974 297 956 b 313 917 297 933 304 925 l 424 810 b 468 792 440 794 450 792 z "},"~":{"ha":639,"x_min":0,"x_max":0,"o":"m 168 353 b 231 406 185 390 200 406 b 408 349 278 406 356 349 b 518 453 458 349 492 372 b 521 469 519 457 521 465 b 496 493 521 483 510 493 b 471 474 483 493 475 482 b 408 421 454 436 439 421 b 231 478 361 421 283 478 b 121 374 181 478 147 454 b 118 357 119 369 118 361 b 143 333 118 343 129 333 b 168 353 157 333 164 344 z "},"˜":{"ha":694,"x_min":0,"x_max":0,"o":"m 196 831 b 258 883 213 868 228 883 b 436 826 306 883 383 826 b 546 931 486 826 519 850 b 549 947 547 935 549 943 b 524 971 549 961 538 971 b 499 951 511 971 503 960 b 436 899 482 914 467 899 b 258 956 389 899 311 956 b 149 851 208 956 175 932 b 146 835 147 847 146 839 b 171 811 146 821 157 811 b 196 831 185 811 192 822 z "},"Ñ":{"ha":1097,"x_min":0,"x_max":0,"o":"m 799 18 l 215 829 l 215 33 b 182 0 215 15 200 0 b 149 33 164 0 149 15 l 149 925 b 161 963 144 939 149 953 b 208 954 176 972 199 969 l 797 138 l 797 929 b 831 963 797 947 813 963 b 865 929 850 963 865 947 l 865 33 b 831 0 865 15 850 0 b 804 13 819 0 811 4 b 799 18 803 14 800 15 z m 354 1108 b 417 1161 371 1146 386 1161 b 594 1104 464 1161 542 1104 b 704 1208 644 1104 678 1128 b 707 1225 706 1213 707 1221 b 682 1249 707 1239 696 1249 b 657 1229 669 1249 661 1238 b 594 1176 640 1192 625 1176 b 417 1233 547 1176 469 1233 b 307 1129 367 1233 333 1210 b 304 1113 306 1125 304 1117 b 329 1089 304 1099 315 1089 b 354 1108 343 1089 350 1100 z "},"ñ":{"ha":851,"x_min":0,"x_max":0,"o":"m 617 33 l 617 403 b 407 613 617 518 524 613 b 196 403 292 613 199 518 l 196 33 l 196 28 b 189 13 194 22 193 17 b 164 0 183 4 174 0 l 156 0 b 133 18 146 3 138 10 b 132 22 132 19 132 21 b 131 25 132 24 131 25 l 131 33 l 131 403 l 131 414 l 131 646 b 164 679 131 664 144 679 b 196 646 182 679 196 664 l 196 581 b 407 679 246 640 322 679 b 683 403 560 679 683 554 l 683 33 b 650 0 683 14 668 0 b 617 33 632 0 617 14 z m 257 797 b 319 850 274 835 289 850 b 497 793 367 850 444 793 b 607 897 547 793 581 817 b 610 914 608 901 610 910 b 585 938 610 928 599 938 b 560 918 572 938 564 926 b 497 865 543 881 528 865 b 319 922 450 865 372 922 b 210 818 269 922 236 899 b 207 801 208 814 207 806 b 232 778 207 788 218 778 b 257 797 246 778 253 789 z "},"#":{"ha":972,"x_min":0,"x_max":0,"o":"m 197 35 b 228 -6 194 15 204 -6 b 263 25 246 -6 260 7 l 303 260 l 590 260 l 551 35 b 582 -6 549 15 558 -6 b 617 25 600 -6 614 7 l 657 260 l 819 260 b 853 293 838 260 853 275 b 819 325 853 311 838 325 l 668 325 l 725 653 l 875 653 b 908 686 893 653 908 668 b 875 718 908 704 893 718 l 736 718 l 774 938 b 743 978 776 957 767 978 b 708 947 725 978 711 965 l 669 718 l 382 718 l 419 938 b 389 978 422 957 413 978 b 354 947 371 978 357 965 l 315 718 l 151 718 b 118 685 133 718 118 703 b 151 653 118 667 133 653 l 304 653 l 247 325 l 96 325 b 63 292 78 325 63 310 b 96 260 63 274 78 260 l 236 260 z m 314 325 l 371 653 l 658 653 l 601 325 z "},"$":{"ha":878,"x_min":0,"x_max":0,"o":"m 413 1025 l 413 972 b 121 721 243 968 121 861 b 415 460 121 582 207 506 l 415 64 b 144 190 307 75 222 118 b 119 200 140 194 132 200 b 85 165 101 200 85 183 b 100 136 85 153 90 144 b 413 1 193 56 292 11 l 413 -108 b 446 -142 413 -126 428 -142 b 479 -108 464 -142 479 -126 l 479 0 b 776 257 653 6 776 110 b 476 517 776 393 688 472 l 476 906 b 685 815 550 897 617 869 b 710 806 694 807 701 806 b 746 840 729 806 746 821 b 726 872 746 854 739 863 b 479 969 651 928 579 961 l 479 1025 b 446 1058 479 1043 464 1058 b 413 1025 428 1058 413 1043 z m 706 251 b 476 63 706 146 615 65 l 476 446 b 706 251 657 406 706 347 z m 192 726 b 415 910 192 826 281 907 l 415 531 b 192 726 236 574 192 632 z "},"[":{"ha":597,"x_min":0,"x_max":0,"o":"m 136 -144 b 172 -181 136 -164 153 -181 l 494 -181 b 521 -154 508 -181 521 -168 b 494 -128 521 -140 508 -128 l 200 -128 l 200 919 l 494 919 b 521 946 508 919 521 932 b 494 972 521 960 508 972 l 172 972 b 136 936 153 972 136 956 z "},"]":{"ha":597,"x_min":0,"x_max":0,"o":"m 461 936 b 425 972 461 956 444 972 l 103 972 b 76 946 89 972 76 960 b 103 919 76 932 89 919 l 397 919 l 397 -128 l 103 -128 b 76 -154 89 -128 76 -140 b 103 -181 76 -168 89 -181 l 425 -181 b 461 -144 444 -181 461 -164 z "},"^":{"ha":694,"x_min":0,"x_max":0,"o":"m 346 917 l 513 699 b 563 679 524 683 540 679 b 583 694 576 679 583 688 b 576 713 583 700 582 704 l 392 957 b 353 982 379 972 369 982 l 342 982 b 303 957 325 982 315 972 l 118 713 b 111 694 113 704 111 700 b 131 679 111 688 118 679 b 179 699 151 679 168 683 z "},"{":{"ha":667,"x_min":0,"x_max":0,"o":"m 564 -193 b 593 -171 579 -196 593 -187 b 576 -149 593 -160 585 -151 b 353 94 375 -96 353 -43 l 353 199 b 208 399 353 322 301 368 b 353 599 296 425 353 475 l 353 703 b 576 946 353 840 375 893 b 593 968 585 949 593 957 b 564 990 593 985 579 993 b 285 711 329 943 285 854 l 285 601 b 110 425 285 493 253 425 b 76 399 88 425 76 414 b 110 372 76 383 88 372 b 285 196 253 372 285 304 l 285 86 b 564 -193 285 -57 329 -146 z "},"}":{"ha":667,"x_min":0,"x_max":0,"o":"m 103 990 b 74 968 88 993 74 985 b 90 946 74 957 82 949 b 314 703 292 893 314 840 l 314 599 b 458 399 314 475 365 429 b 314 199 371 372 314 322 l 314 94 b 90 -149 314 -43 292 -96 b 74 -171 82 -151 74 -160 b 103 -193 74 -187 88 -196 b 382 86 338 -146 382 -57 l 382 196 b 557 372 382 304 414 372 b 590 399 579 372 590 383 b 557 425 590 414 579 425 b 382 601 414 425 382 493 l 382 711 b 103 990 382 854 338 943 z "},"|":{"ha":397,"x_min":0,"x_max":0,"o":"m 168 -153 b 199 -183 168 -169 182 -183 b 229 -153 215 -183 229 -169 l 229 1083 b 199 1114 229 1100 215 1114 b 168 1083 182 1114 168 1100 z "},"¿":{"ha":742,"x_min":0,"x_max":0,"o":"m 308 747 l 308 574 l 308 569 l 308 568 b 340 536 308 550 324 536 b 575 301 471 536 575 431 b 340 65 575 169 471 67 b 138 183 253 65 178 111 b 93 194 129 197 108 204 b 82 150 76 185 72 165 b 340 0 133 60 229 0 b 640 301 506 0 640 135 b 374 599 640 454 524 582 l 374 747 b 340 779 374 765 358 779 b 308 747 324 779 308 765 z m 308 940 l 308 910 b 340 876 308 892 324 876 b 374 910 358 876 374 892 l 374 940 b 340 972 374 958 358 972 b 308 940 324 972 308 958 z "},"™":{"ha":958,"x_min":0,"x_max":0,"o":"m 171 569 b 185 556 171 561 178 556 b 199 569 193 556 199 561 l 199 943 l 325 943 b 339 958 333 943 339 950 b 325 972 339 965 333 972 l 44 972 b 31 958 38 972 31 965 b 44 943 31 950 38 943 l 171 943 z m 736 569 b 750 556 736 561 742 556 b 765 569 758 556 765 561 l 765 956 b 763 964 765 958 764 961 b 758 968 761 965 760 967 b 738 964 751 972 742 971 l 590 758 l 442 964 b 421 968 438 971 428 972 b 421 967 421 968 421 968 b 414 956 417 964 414 960 l 414 569 b 429 556 414 561 421 556 b 443 569 438 556 443 561 l 443 913 l 576 728 b 589 721 581 722 585 721 l 590 721 b 603 728 594 721 600 722 l 736 913 z "},"ˆ":{"ha":694,"x_min":0,"x_max":0,"o":"m 346 921 l 433 840 b 479 822 450 825 461 822 b 499 836 492 822 499 829 b 492 853 499 842 497 846 l 392 975 b 353 1000 379 990 369 1000 l 342 1000 b 303 975 325 1000 315 990 l 203 853 b 196 836 197 846 196 842 b 214 822 196 829 203 822 b 258 840 232 822 242 825 z "},"ô":{"ha":889,"x_min":0,"x_max":0,"o":"m 81 340 b 403 681 81 525 225 681 l 403 681 b 725 340 582 681 725 525 l 725 340 b 403 0 725 156 582 0 l 403 0 b 81 340 225 0 81 156 l 81 340 z m 147 340 b 403 67 147 189 264 67 l 403 67 b 658 340 542 67 658 189 l 658 340 b 403 615 658 492 542 615 l 403 615 b 147 340 264 615 147 492 l 147 340 z m 401 890 l 489 810 b 535 792 506 794 517 792 b 554 806 547 792 554 799 b 547 822 554 811 553 815 l 447 944 b 408 969 435 960 425 969 l 397 969 b 358 944 381 969 371 960 l 258 822 b 251 806 253 815 251 811 b 269 792 251 799 258 792 b 314 810 288 792 297 794 z "},"´":{"ha":694,"x_min":0,"x_max":0,"o":"m 297 822 b 342 840 315 822 325 825 l 453 947 b 468 972 461 956 468 964 b 410 1004 468 986 436 1004 b 371 979 393 1004 382 996 l 285 850 b 279 835 282 846 279 840 b 297 822 279 828 288 822 z "},"ó":{"ha":889,"x_min":0,"x_max":0,"o":"m 81 340 b 403 681 81 525 225 681 l 403 681 b 725 340 582 681 725 525 l 725 340 b 403 0 725 156 582 0 l 403 0 b 81 340 225 0 81 156 l 81 340 z m 147 340 b 403 67 147 189 264 67 l 403 67 b 658 340 542 67 658 189 l 658 340 b 403 615 658 492 542 615 l 403 615 b 147 340 264 615 147 492 l 147 340 z m 329 792 b 374 810 347 792 357 794 l 485 917 b 500 942 493 925 500 933 b 442 974 500 956 468 974 b 403 949 425 974 414 965 l 317 819 b 311 804 314 815 311 810 b 329 792 311 797 319 792 z "},"õ":{"ha":889,"x_min":0,"x_max":0,"o":"m 81 340 b 403 681 81 525 225 681 l 403 681 b 725 340 582 681 725 525 l 725 340 b 403 0 725 156 582 0 l 403 0 b 81 340 225 0 81 156 l 81 340 z m 147 340 b 403 67 147 189 264 67 l 403 67 b 658 340 542 67 658 189 l 658 340 b 403 615 658 492 542 615 l 403 615 b 147 340 264 615 147 492 l 147 340 z m 251 811 b 314 864 268 849 283 864 b 492 807 361 864 439 807 b 601 911 542 807 575 831 b 604 928 603 915 604 924 b 579 951 604 942 593 951 b 554 932 567 951 558 940 b 492 879 538 894 522 879 b 314 936 444 879 367 936 b 204 832 264 936 231 913 b 201 815 203 828 201 819 b 226 792 201 801 213 792 b 251 811 240 792 247 803 z "},"á":{"ha":797,"x_min":0,"x_max":0,"o":"m 699 681 b 665 647 681 681 665 667 l 665 547 b 410 681 607 628 514 681 b 88 340 231 681 88 526 b 410 0 88 154 231 0 b 665 135 514 0 607 54 l 665 33 b 699 0 665 15 681 0 b 732 33 717 0 732 15 l 732 647 b 699 681 732 667 717 681 z m 410 67 b 154 340 271 67 154 188 b 410 615 154 493 271 615 b 665 340 550 615 665 493 b 410 67 665 188 550 67 z m 333 792 b 378 810 351 792 361 794 l 489 917 b 504 942 497 925 504 933 b 446 974 504 956 472 974 b 407 949 429 974 418 965 l 321 819 b 315 804 318 815 315 810 b 333 792 315 797 324 792 z "},"â":{"ha":797,"x_min":0,"x_max":0,"o":"m 699 681 b 665 647 681 681 665 667 l 665 547 b 410 681 607 628 514 681 b 88 340 231 681 88 526 b 410 0 88 154 231 0 b 665 135 514 0 607 54 l 665 33 b 699 0 665 15 681 0 b 732 33 717 0 732 15 l 732 647 b 699 681 732 667 717 681 z m 410 67 b 154 340 271 67 154 188 b 410 615 154 493 271 615 b 665 340 550 615 665 493 b 410 67 665 188 550 67 z m 408 890 l 496 810 b 542 792 513 794 524 792 b 561 806 554 792 561 799 b 554 822 561 811 560 815 l 454 944 b 415 969 442 960 432 969 l 404 969 b 365 944 388 969 378 960 l 265 822 b 258 806 260 815 258 811 b 276 792 258 799 265 792 b 321 810 294 792 304 794 z "},"ã":{"ha":797,"x_min":0,"x_max":0,"o":"m 699 681 b 665 647 681 681 665 667 l 665 547 b 410 681 607 628 514 681 b 88 340 231 681 88 526 b 410 0 88 154 231 0 b 665 135 514 0 607 54 l 665 33 b 699 0 665 15 681 0 b 732 33 717 0 732 15 l 732 647 b 699 681 732 667 717 681 z m 410 67 b 154 340 271 67 154 188 b 410 615 154 493 271 615 b 665 340 550 615 665 493 b 410 67 665 188 550 67 z m 258 811 b 321 864 275 849 290 864 b 499 807 368 864 446 807 b 608 911 549 807 582 831 b 611 928 610 915 611 924 b 586 951 611 942 600 951 b 561 932 574 951 565 940 b 499 879 544 894 529 879 b 321 936 451 879 374 936 b 211 832 271 936 238 913 b 208 815 210 828 208 819 b 233 792 208 801 219 792 b 258 811 247 792 254 803 z "},"Ì":{"ha":483,"x_min":0,"x_max":0,"o":"m 265 33 l 265 939 b 299 972 265 957 281 972 l 299 972 b 333 939 318 972 333 957 l 333 939 l 333 33 b 299 0 333 15 318 0 l 299 0 b 265 33 281 0 265 15 l 265 33 z m 376 1100 b 394 1113 386 1100 394 1106 b 389 1128 394 1118 392 1124 l 303 1257 b 264 1282 292 1274 281 1282 b 206 1250 238 1282 206 1264 b 221 1225 206 1242 213 1233 l 332 1118 b 376 1100 349 1103 358 1100 z "},"Í":{"ha":381,"x_min":0,"x_max":0,"o":"m 176 33 l 176 939 b 210 972 176 957 192 972 l 210 972 b 244 939 229 972 244 957 l 244 939 l 244 33 b 210 0 244 15 229 0 l 210 0 b 176 33 192 0 176 15 l 176 33 z m 133 1100 b 178 1118 151 1100 161 1103 l 289 1225 b 304 1250 297 1233 304 1242 b 246 1282 304 1264 272 1282 b 207 1257 229 1282 218 1274 l 121 1128 b 115 1113 118 1124 115 1118 b 133 1100 115 1106 124 1100 z "},"Î":{"ha":381,"x_min":0,"x_max":0,"o":"m 119 33 l 119 939 b 153 972 119 957 135 972 l 153 972 b 188 939 172 972 188 957 l 188 939 l 188 33 b 153 0 188 15 172 0 l 153 0 b 119 33 135 0 119 15 l 119 33 z m 151 1199 l 239 1118 b 285 1100 256 1103 267 1100 b 304 1114 297 1100 304 1107 b 297 1131 304 1119 303 1124 l 197 1253 b 158 1278 185 1268 175 1278 l 147 1278 b 108 1253 131 1278 121 1268 l 8 1131 b 1 1114 3 1124 1 1119 b 19 1100 1 1107 8 1100 b 64 1118 38 1100 47 1103 z "},"Â":{"ha":922,"x_min":0,"x_max":0,"o":"m 764 22 l 678 251 l 235 251 l 149 22 b 117 0 143 8 131 0 b 104 1 114 0 108 1 b 85 46 88 8 78 29 l 422 947 b 456 968 428 960 442 968 b 489 947 471 968 485 960 l 826 46 b 808 1 833 29 825 8 b 796 0 803 1 800 0 b 764 22 783 0 769 8 z m 260 319 l 653 319 l 457 842 z m 456 1199 l 543 1118 b 589 1100 560 1103 571 1100 b 608 1114 601 1100 608 1107 b 601 1131 608 1119 607 1124 l 501 1253 b 463 1278 489 1268 479 1278 l 451 1278 b 413 1253 435 1278 425 1268 l 313 1131 b 306 1114 307 1124 306 1119 b 324 1100 306 1107 313 1100 b 368 1118 342 1100 351 1103 z "},"Ã":{"ha":922,"x_min":0,"x_max":0,"o":"m 764 22 l 678 251 l 235 251 l 149 22 b 117 0 143 8 131 0 b 104 1 114 0 108 1 b 85 46 88 8 78 29 l 422 947 b 456 968 428 960 442 968 b 489 947 471 968 485 960 l 826 46 b 808 1 833 29 825 8 b 796 0 803 1 800 0 b 764 22 783 0 769 8 z m 260 319 l 653 319 l 457 842 z m 306 1108 b 368 1161 322 1146 338 1161 b 546 1104 415 1161 493 1104 b 656 1208 596 1104 629 1128 b 658 1225 657 1213 658 1221 b 633 1249 658 1239 647 1249 b 608 1229 621 1249 613 1238 b 546 1176 592 1192 576 1176 b 368 1233 499 1176 421 1233 b 258 1129 318 1233 285 1210 b 256 1113 257 1125 256 1117 b 281 1089 256 1099 267 1089 b 306 1108 294 1089 301 1100 z "},"ú":{"ha":851,"x_min":0,"x_max":0,"o":"m 115 278 l 115 649 b 149 682 115 668 131 682 l 149 682 b 182 649 167 682 182 668 l 182 649 l 182 278 b 390 67 182 161 275 68 l 390 67 b 601 278 507 68 601 161 l 601 278 l 601 649 l 601 649 b 635 682 601 668 618 682 l 635 682 b 669 649 654 682 669 668 l 669 649 l 669 278 b 390 0 669 125 546 0 l 390 0 b 115 278 238 0 115 125 l 115 278 z m 315 792 b 360 810 333 792 343 794 l 471 917 b 486 942 479 925 486 933 b 428 974 486 956 454 974 b 389 949 411 974 400 965 l 303 819 b 297 804 300 815 297 810 b 315 792 297 797 306 792 z "},"û":{"ha":851,"x_min":0,"x_max":0,"o":"m 115 278 l 115 649 b 149 682 115 668 131 682 l 149 682 b 182 649 167 682 182 668 l 182 649 l 182 278 b 390 67 182 161 275 68 l 390 67 b 601 278 507 68 601 161 l 601 278 l 601 649 l 601 649 b 635 682 601 668 618 682 l 635 682 b 669 649 654 682 669 668 l 669 649 l 669 278 b 390 0 669 125 546 0 l 390 0 b 115 278 238 0 115 125 l 115 278 z m 392 890 l 479 810 b 525 792 496 794 507 792 b 544 806 538 792 544 799 b 538 822 544 811 543 815 l 438 944 b 399 969 425 960 415 969 l 388 969 b 349 944 371 969 361 960 l 249 822 b 242 806 243 815 242 811 b 260 792 242 799 249 792 b 304 810 278 792 288 794 z "},"ƒ":{"ha":703,"x_min":0,"x_max":0,"o":"m 131 -7 b 308 164 228 -7 286 49 l 378 533 l 578 533 b 610 564 594 533 610 547 b 578 596 610 581 594 596 l 389 596 l 424 781 b 556 918 442 879 479 918 b 628 910 592 918 618 910 b 658 939 644 910 658 922 b 631 971 658 956 649 967 b 549 979 603 978 581 979 b 350 785 438 979 376 922 l 314 596 l 178 596 b 146 564 161 596 146 582 b 178 533 146 547 161 533 l 303 533 l 235 168 b 121 54 221 90 181 54 b 78 24 94 54 78 44 b 131 -7 78 6 94 -7 z "},"œ":{"ha":1465,"x_min":0,"x_max":0,"o":"m 1000 0 b 1276 156 1117 0 1217 61 b 1265 201 1286 171 1281 190 b 1219 190 1251 210 1229 207 b 1000 67 1174 115 1092 67 b 735 328 858 67 742 179 l 1296 328 b 1329 361 1314 328 1329 343 l 1329 367 b 1000 683 1315 543 1175 683 b 696 478 864 683 747 599 b 401 679 646 596 533 679 b 81 340 224 679 81 525 b 401 0 81 154 224 0 b 696 203 535 0 647 83 b 1000 0 747 83 864 0 z m 147 340 b 401 614 147 492 263 614 b 657 340 542 614 657 492 b 401 67 657 188 542 67 b 147 340 263 67 147 188 z m 1000 617 b 1257 396 1126 617 1233 522 l 739 396 b 1000 617 764 524 871 617 z "},"ë":{"ha":811,"x_min":0,"x_max":0,"o":"m 415 0 b 85 339 232 0 85 153 b 415 681 85 528 232 681 b 743 364 590 681 729 542 l 743 363 l 743 358 b 710 328 743 340 728 328 l 151 328 b 415 67 158 179 275 67 b 635 190 506 67 589 114 b 679 201 644 207 665 210 b 690 154 694 190 700 171 b 415 0 632 61 531 0 z m 415 614 b 156 393 288 614 181 522 l 671 393 b 415 614 649 521 540 614 z m 240 851 b 300 792 240 818 267 792 b 360 851 333 792 360 818 b 300 911 360 885 333 911 b 240 851 267 911 240 885 z m 469 851 b 529 792 469 818 496 792 b 589 851 563 792 589 818 b 529 911 589 885 563 911 b 469 851 496 911 469 885 z "},"Ë":{"ha":931,"x_min":0,"x_max":0,"o":"m 144 33 l 144 939 b 178 972 144 957 160 972 l 181 972 l 678 972 b 711 939 697 972 711 957 b 678 904 711 919 697 904 l 213 904 l 213 519 l 619 519 b 653 485 638 519 653 504 b 619 451 653 467 638 451 l 213 451 l 213 68 l 678 68 b 711 33 697 68 711 53 b 678 0 711 15 697 0 l 182 0 l 178 0 l 175 0 b 144 33 158 1 144 15 z m 251 1163 b 311 1103 251 1129 278 1103 b 371 1163 344 1103 371 1129 b 311 1222 371 1196 344 1222 b 251 1163 278 1222 251 1196 z m 481 1163 b 540 1103 481 1129 507 1103 b 600 1163 574 1103 600 1129 b 540 1222 600 1196 574 1222 b 481 1163 507 1222 481 1196 z "},"ö":{"ha":889,"x_min":0,"x_max":0,"o":"m 81 340 b 403 681 81 525 225 681 l 403 681 b 725 340 582 681 725 525 l 725 340 b 403 0 725 156 582 0 l 403 0 b 81 340 225 0 81 156 l 81 340 z m 147 340 b 403 67 147 189 264 67 l 403 67 b 658 340 542 67 658 189 l 658 340 b 403 615 658 492 542 615 l 403 615 b 147 340 264 615 147 492 l 147 340 z m 228 851 b 288 792 228 818 254 792 b 347 851 321 792 347 818 b 288 911 347 885 321 911 b 228 851 254 911 228 885 z m 457 851 b 517 792 457 818 483 792 b 576 851 550 792 576 818 b 517 911 576 885 550 911 b 457 851 483 911 457 885 z "},"ü":{"ha":851,"x_min":0,"x_max":0,"o":"m 115 278 l 115 649 b 149 682 115 668 131 682 l 149 682 b 182 649 167 682 182 668 l 182 649 l 182 278 b 390 67 182 161 275 68 l 390 67 b 601 278 507 68 601 161 l 601 278 l 601 649 l 601 649 b 635 682 601 668 618 682 l 635 682 b 669 649 654 682 669 668 l 669 649 l 669 278 b 390 0 669 125 546 0 l 390 0 b 115 278 238 0 115 125 l 115 278 z m 219 851 b 279 792 219 818 246 792 b 339 851 313 792 339 818 b 279 911 339 885 313 911 b 219 851 246 911 219 885 z m 449 851 b 508 792 449 818 475 792 b 568 851 542 792 568 818 b 508 911 568 885 542 911 b 449 851 475 911 449 885 z "},"Ä":{"ha":921,"x_min":0,"x_max":0,"o":"m 764 22 l 678 251 l 235 251 l 149 22 b 117 0 143 8 131 0 b 104 1 114 0 108 1 b 85 46 88 8 78 29 l 422 947 b 456 968 428 960 442 968 b 489 947 471 968 485 960 l 826 46 b 808 1 833 29 825 8 b 796 0 803 1 800 0 b 764 22 783 0 769 8 z m 260 319 l 653 319 l 457 842 z m 283 1163 b 343 1103 283 1129 310 1103 b 403 1163 376 1103 403 1129 b 343 1222 403 1196 376 1222 b 283 1163 310 1222 283 1196 z m 513 1163 b 572 1103 513 1129 539 1103 b 632 1163 606 1103 632 1129 b 572 1222 632 1196 606 1222 b 513 1163 539 1222 513 1196 z "},"ä":{"ha":797,"x_min":0,"x_max":0,"o":"m 699 681 b 665 647 681 681 665 667 l 665 547 b 410 681 607 628 514 681 b 88 340 231 681 88 526 b 410 0 88 154 231 0 b 665 135 514 0 607 54 l 665 33 b 699 0 665 15 681 0 b 732 33 717 0 732 15 l 732 647 b 699 681 732 667 717 681 z m 410 67 b 154 340 271 67 154 188 b 410 615 154 493 271 615 b 665 340 550 615 665 493 b 410 67 665 188 550 67 z m 238 851 b 297 792 238 818 264 792 b 357 851 331 792 357 818 b 297 911 357 885 331 911 b 238 851 264 911 238 885 z m 467 851 b 526 792 467 818 493 792 b 586 851 560 792 586 818 b 526 911 586 885 560 911 b 467 851 493 911 467 885 z "},"æ":{"ha":1325,"x_min":0,"x_max":0,"o":"m 989 683 b 715 535 875 683 775 624 l 715 647 b 682 681 715 667 700 681 b 649 647 664 681 649 667 l 649 547 b 393 681 590 628 497 681 b 71 340 214 681 71 526 b 393 0 71 154 214 0 b 649 135 497 0 590 54 l 649 33 b 682 0 649 15 664 0 b 715 33 700 0 715 15 l 715 149 b 989 0 775 60 875 0 b 1265 156 1106 0 1206 61 b 1254 201 1275 171 1269 190 b 1208 190 1240 210 1218 207 b 989 67 1163 115 1081 67 b 724 328 847 67 731 179 l 1285 328 b 1318 361 1303 328 1318 343 l 1318 365 l 1318 367 b 989 683 1304 543 1164 683 z m 393 67 b 138 340 254 67 138 188 b 393 615 138 493 254 615 b 649 340 533 615 649 493 b 393 67 649 188 533 67 z m 728 396 b 989 617 753 524 860 617 b 1246 396 1115 617 1222 522 l 728 396 z "},"„":{"ha":569,"x_min":0,"x_max":0,"o":"m 75 -125 b 96 -146 75 -139 86 -146 b 168 -101 108 -146 143 -126 b 206 43 193 -76 206 -35 l 206 78 b 160 124 206 104 186 124 b 114 78 133 124 114 104 l 114 49 b 151 0 114 21 131 6 b 86 -107 156 -49 136 -79 b 75 -125 79 -111 75 -118 z m 325 -125 b 346 -146 325 -139 336 -146 b 418 -101 358 -146 393 -126 b 456 43 443 -76 456 -35 l 456 78 b 410 124 456 103 435 124 b 364 78 385 124 364 103 l 364 49 b 401 0 364 21 381 6 b 336 -107 406 -49 386 -79 b 325 -125 329 -111 325 -118 z "},"•":{"ha":653,"x_min":0,"x_max":0,"o":"m 326 317 b 499 488 421 317 499 393 l 499 490 b 326 661 499 585 415 661 b 154 490 236 661 154 585 l 154 488 b 326 317 154 393 232 317 z "},"–":{"ha":733,"x_min":0,"x_max":0,"o":"m 128 376 l 606 376 b 642 413 625 376 642 393 b 606 449 642 432 625 449 l 128 449 b 92 413 108 449 92 432 b 128 376 92 393 108 376 z "},"—":{"ha":1247,"x_min":0,"x_max":0,"o":"m 128 376 l 1119 376 b 1156 413 1139 376 1156 393 b 1119 449 1156 432 1139 449 l 128 449 b 92 413 108 449 92 432 b 128 376 92 393 108 376 z "},"Ÿ":{"ha":994,"x_min":0,"x_max":0,"o":"m 411 33 l 411 467 l 85 913 b 92 960 75 928 78 950 b 139 954 107 972 129 969 l 443 536 l 749 954 b 796 960 758 969 781 972 b 803 913 811 950 814 928 l 478 469 l 478 33 b 444 0 478 15 464 0 b 411 33 426 0 411 15 z m 271 1163 b 331 1103 271 1129 297 1103 b 390 1163 364 1103 390 1129 b 331 1222 390 1196 364 1222 b 271 1163 297 1222 271 1196 z m 500 1163 b 560 1103 500 1129 526 1103 b 619 1163 593 1103 619 1129 b 560 1222 619 1196 593 1222 b 500 1163 526 1222 500 1196 z "},"ý":{"ha":817,"x_min":0,"x_max":0,"o":"m 72 279 l 72 649 b 104 681 72 667 88 681 b 139 649 124 681 139 667 l 139 279 b 347 69 139 163 232 69 b 558 279 464 69 557 163 l 558 649 b 564 665 558 654 560 661 b 565 669 564 667 565 668 b 568 671 567 669 567 671 b 581 679 571 675 576 678 l 583 679 b 588 681 585 679 586 681 l 592 681 l 596 681 b 613 674 601 679 607 676 b 621 663 615 671 619 667 b 625 649 624 658 625 653 l 625 279 l 625 267 l 625 54 b 301 -265 625 -124 481 -265 b 161 -233 251 -265 204 -253 b 147 -189 146 -224 139 -204 b 190 -172 156 -172 174 -168 b 301 -199 224 -189 263 -199 b 558 54 443 -199 557 -86 l 558 99 b 347 1 507 40 432 1 b 72 279 196 3 72 126 z m 272 792 b 317 810 290 792 300 794 l 428 917 b 443 942 436 925 443 933 b 385 974 443 956 411 974 b 346 949 368 974 357 965 l 260 819 b 254 804 257 815 254 810 b 272 792 254 797 263 792 z "},"ÿ":{"ha":817,"x_min":0,"x_max":0,"o":"m 72 279 l 72 649 b 104 681 72 667 88 681 b 139 649 124 681 139 667 l 139 279 b 347 69 139 163 232 69 b 558 279 464 69 557 163 l 558 649 b 564 665 558 654 560 661 b 565 669 564 667 565 668 b 568 671 567 669 567 671 b 581 679 571 675 576 678 l 583 679 b 588 681 585 679 586 681 l 592 681 l 596 681 b 613 674 601 679 607 676 b 621 663 615 671 619 667 b 625 649 624 658 625 653 l 625 279 l 625 267 l 625 54 b 301 -265 625 -124 481 -265 b 161 -233 251 -265 204 -253 b 147 -189 146 -224 139 -204 b 190 -172 156 -172 174 -168 b 301 -199 224 -189 263 -199 b 558 54 443 -199 557 -86 l 558 99 b 347 1 507 40 432 1 b 72 279 196 3 72 126 z m 174 851 b 233 792 174 818 200 792 b 293 851 267 792 293 818 b 233 911 293 885 267 911 b 174 851 200 911 174 885 z m 403 851 b 463 792 403 818 429 792 b 522 851 496 792 522 818 b 463 911 522 885 496 911 b 403 851 429 911 403 885 z "},"Ý":{"ha":994,"x_min":0,"x_max":0,"o":"m 411 33 l 411 467 l 85 913 b 92 960 75 928 78 950 b 139 954 107 972 129 969 l 443 536 l 749 954 b 796 960 758 969 781 972 b 803 913 811 950 814 928 l 478 469 l 478 33 b 444 0 478 15 464 0 b 411 33 426 0 411 15 z m 368 1100 b 413 1118 386 1100 396 1103 l 524 1225 b 539 1250 532 1233 539 1242 b 481 1282 539 1264 507 1282 b 442 1257 464 1282 453 1274 l 356 1128 b 350 1113 353 1124 350 1118 b 368 1100 350 1106 358 1100 z "},"Ü":{"ha":1056,"x_min":0,"x_max":0,"o":"m 129 393 l 129 939 b 163 972 129 957 144 972 l 163 972 b 197 939 182 972 197 957 l 197 939 l 197 393 b 521 68 197 214 343 69 l 521 68 b 847 393 701 69 847 214 l 847 393 l 847 939 l 847 939 b 881 972 847 957 863 972 l 881 972 b 915 939 900 972 915 957 l 915 939 l 915 393 b 521 0 915 176 739 0 l 521 0 b 129 393 306 0 129 176 l 129 393 z m 349 1163 b 408 1103 349 1129 375 1103 b 468 1163 442 1103 468 1129 b 408 1222 468 1196 442 1222 b 349 1163 375 1222 349 1196 z m 578 1163 b 638 1103 578 1129 604 1103 b 697 1163 671 1103 697 1129 b 638 1222 697 1196 671 1222 b 578 1163 604 1222 578 1196 z "},"Û":{"ha":1056,"x_min":0,"x_max":0,"o":"m 129 393 l 129 939 b 163 972 129 957 144 972 l 163 972 b 197 939 182 972 197 957 l 197 939 l 197 393 b 521 68 197 214 343 69 l 521 68 b 847 393 701 69 847 214 l 847 393 l 847 939 l 847 939 b 881 972 847 957 863 972 l 881 972 b 915 939 900 972 915 957 l 915 939 l 915 393 b 521 0 915 176 739 0 l 521 0 b 129 393 306 0 129 176 l 129 393 z m 522 1199 l 610 1118 b 656 1100 626 1103 638 1100 b 675 1114 668 1100 675 1107 b 668 1131 675 1119 674 1124 l 568 1253 b 529 1278 556 1268 546 1278 l 518 1278 b 479 1253 501 1278 492 1268 l 379 1131 b 372 1114 374 1124 372 1119 b 390 1100 372 1107 379 1100 b 435 1118 408 1100 418 1103 z "},"Ú":{"ha":1056,"x_min":0,"x_max":0,"o":"m 129 393 l 129 939 b 163 972 129 957 144 972 l 163 972 b 197 939 182 972 197 957 l 197 939 l 197 393 b 521 68 197 214 343 69 l 521 68 b 847 393 701 69 847 214 l 847 393 l 847 939 l 847 939 b 881 972 847 957 863 972 l 881 972 b 915 939 900 972 915 957 l 915 939 l 915 393 b 521 0 915 176 739 0 l 521 0 b 129 393 306 0 129 176 l 129 393 z m 446 1100 b 490 1118 464 1100 474 1103 l 601 1225 b 617 1250 610 1233 617 1242 b 558 1282 617 1264 585 1282 b 519 1257 542 1282 531 1274 l 433 1128 b 428 1113 431 1124 428 1118 b 446 1100 428 1106 436 1100 z "},"Ö":{"ha":1181,"x_min":0,"x_max":0,"o":"m 101 493 b 571 986 103 765 308 986 l 571 986 b 1036 493 831 986 1035 765 l 1036 493 b 571 0 1035 221 831 0 l 571 0 b 101 493 308 0 103 221 l 101 493 z m 169 493 b 571 68 169 256 350 68 l 571 68 b 967 493 785 68 965 256 l 967 493 b 571 917 965 733 785 917 l 571 917 b 169 493 350 917 169 733 l 169 493 z m 394 1163 b 454 1103 394 1129 421 1103 b 514 1163 488 1103 514 1129 b 454 1222 514 1196 488 1222 b 394 1163 421 1222 394 1196 z m 624 1163 b 683 1103 624 1129 650 1103 b 743 1163 717 1103 743 1129 b 683 1222 743 1196 717 1222 b 624 1163 650 1222 624 1196 z "},"Õ":{"ha":1181,"x_min":0,"x_max":0,"o":"m 101 493 b 571 986 103 765 308 986 l 571 986 b 1036 493 831 986 1035 765 l 1036 493 b 571 0 1035 221 831 0 l 571 0 b 101 493 308 0 103 221 l 101 493 z m 169 493 b 571 68 169 256 350 68 l 571 68 b 967 493 785 68 965 256 l 967 493 b 571 917 965 733 785 917 l 571 917 b 169 493 350 917 169 733 l 169 493 z m 417 1108 b 479 1161 433 1146 449 1161 b 657 1104 526 1161 604 1104 b 767 1208 707 1104 740 1128 b 769 1225 768 1213 769 1221 b 744 1249 769 1239 758 1249 b 719 1229 732 1249 724 1238 b 657 1176 703 1192 688 1176 b 479 1233 610 1176 532 1233 b 369 1129 429 1233 396 1210 b 367 1113 368 1125 367 1117 b 392 1089 367 1099 378 1089 b 417 1108 406 1089 413 1100 z "},"Ô":{"ha":1181,"x_min":0,"x_max":0,"o":"m 101 493 b 571 986 103 765 308 986 l 571 986 b 1036 493 831 986 1035 765 l 1036 493 b 571 0 1035 221 831 0 l 571 0 b 101 493 308 0 103 221 l 101 493 z m 169 493 b 571 68 169 256 350 68 l 571 68 b 967 493 785 68 965 256 l 967 493 b 571 917 965 733 785 917 l 571 917 b 169 493 350 917 169 733 l 169 493 z m 568 1199 l 656 1118 b 701 1100 672 1103 683 1100 b 721 1114 714 1100 721 1107 b 714 1131 721 1119 719 1124 l 614 1253 b 575 1278 601 1268 592 1278 l 564 1278 b 525 1253 547 1278 538 1268 l 425 1131 b 418 1114 419 1124 418 1119 b 436 1100 418 1107 425 1100 b 481 1118 454 1100 464 1103 z "},"Ó":{"ha":1181,"x_min":0,"x_max":0,"o":"m 101 493 b 571 986 103 765 308 986 l 571 986 b 1036 493 831 986 1035 765 l 1036 493 b 571 0 1035 221 831 0 l 571 0 b 101 493 308 0 103 221 l 101 493 z m 169 493 b 571 68 169 256 350 68 l 571 68 b 967 493 785 68 965 256 l 967 493 b 571 917 965 733 785 917 l 571 917 b 169 493 350 917 169 733 l 169 493 z m 490 1100 b 535 1118 508 1100 518 1103 l 646 1225 b 661 1250 654 1233 661 1242 b 603 1282 661 1264 629 1282 b 564 1257 586 1282 575 1274 l 478 1128 b 472 1113 475 1124 472 1118 b 490 1100 472 1106 481 1100 z "},"Ï":{"ha":381,"x_min":0,"x_max":0,"o":"m 129 33 l 129 939 b 163 972 129 957 144 972 l 163 972 b 197 939 182 972 197 957 l 197 939 l 197 33 b 163 0 197 15 182 0 l 163 0 b 129 33 144 0 129 15 l 129 33 z m -11 1163 b 49 1103 -11 1129 15 1103 b 108 1163 82 1103 108 1129 b 49 1222 108 1196 82 1222 b -11 1163 15 1222 -11 1196 z m 218 1163 b 278 1103 218 1129 244 1103 b 338 1163 311 1103 338 1129 b 278 1222 338 1196 311 1222 b 218 1163 244 1222 218 1196 z "},"¡":{"ha":350,"x_min":0,"x_max":0,"o":"m 129 731 l 129 33 b 163 0 129 15 144 0 l 163 0 b 197 33 182 0 197 15 l 197 33 l 197 731 b 163 765 197 750 182 765 l 163 765 b 129 731 144 765 129 750 l 129 731 z m 129 939 l 129 906 b 163 872 129 888 144 872 l 163 872 b 197 906 182 872 197 888 l 197 906 l 197 939 b 163 972 197 957 182 972 l 163 972 b 129 939 144 972 129 957 l 129 939 z "},"²":{"ha":550,"x_min":0,"x_max":0,"o":""},"°":{"ha":625,"x_min":0,"x_max":0,"o":"m 313 572 b 522 775 422 572 522 667 l 522 778 b 313 981 522 886 422 981 b 103 778 203 981 103 886 l 103 775 b 313 572 103 667 203 572 z m 313 633 b 172 775 232 633 172 701 l 172 778 b 313 919 172 851 232 919 b 453 778 393 919 453 851 l 453 775 b 313 633 453 701 393 633 z "},"®":{"ha":578,"x_min":0,"x_max":0,"o":"m 289 500 b 531 743 424 500 531 611 l 531 744 b 289 986 531 876 425 986 b 47 743 154 986 47 875 l 47 742 b 289 500 47 610 153 500 z m 289 526 b 75 742 167 526 75 624 l 75 743 b 289 960 75 861 168 960 b 503 744 411 960 503 863 l 503 743 b 289 526 503 625 410 526 z m 367 604 b 358 654 361 614 358 629 b 333 701 358 678 347 692 b 297 717 319 711 303 715 b 296 718 297 717 296 718 l 222 718 l 222 597 b 211 586 222 590 217 586 b 200 597 204 586 200 590 l 200 881 b 210 892 200 886 204 892 l 211 892 l 213 892 l 297 892 b 383 804 344 892 383 853 b 333 725 383 769 363 739 b 338 724 335 724 336 724 b 379 654 358 713 379 689 b 383 619 379 638 381 626 b 388 613 385 614 388 613 b 399 606 393 613 397 610 b 393 592 400 599 397 593 b 388 590 392 592 389 590 l 386 590 b 367 604 381 590 371 594 z m 363 804 b 297 869 363 840 333 869 l 222 869 l 222 739 l 294 739 l 299 739 b 363 804 333 739 363 769 z "},"©":{"ha":1153,"x_min":0,"x_max":0,"o":"m 575 -17 b 1079 486 857 -17 1079 213 l 1079 489 b 578 989 1079 763 860 989 b 74 486 296 989 74 760 l 74 483 b 575 -17 74 210 293 -17 z m 575 22 b 115 483 313 22 115 229 l 115 486 b 578 950 115 740 314 950 b 1038 489 840 950 1038 743 l 1038 486 b 575 22 1038 232 839 22 z m 582 231 b 768 306 665 231 717 261 b 778 326 774 310 778 318 b 750 354 778 342 765 354 b 731 347 742 354 735 350 b 583 286 688 308 646 286 b 390 493 476 286 390 381 l 390 496 b 582 701 390 608 472 701 b 722 643 640 701 685 675 b 744 633 729 638 736 633 b 775 663 761 633 775 646 b 763 688 775 672 769 682 b 583 757 718 726 665 757 b 329 494 440 757 329 636 l 329 492 b 582 231 329 349 439 231 z "},"÷":{"ha":861,"x_min":0,"x_max":0,"o":"m 122 456 b 89 489 104 456 89 471 b 122 522 89 507 104 522 l 739 522 b 772 489 757 522 772 507 b 739 456 772 471 757 456 z m 431 824 b 375 768 400 824 375 799 l 375 744 b 431 689 375 714 400 689 b 486 744 461 689 486 714 l 486 768 b 431 824 486 799 461 824 z m 431 289 b 375 233 400 289 375 264 l 375 210 b 431 154 375 179 400 154 b 486 210 461 154 486 179 l 486 233 b 431 289 486 264 461 289 z "},"ß":{"ha":861,"x_min":0,"x_max":0,"o":"m 396 28 b 425 -3 396 11 410 -3 b 774 263 625 4 774 92 l 774 265 b 493 514 774 414 639 489 b 711 778 601 553 711 642 l 711 781 b 435 1024 711 917 601 1024 b 129 694 247 1024 129 888 l 129 28 b 163 -6 129 8 143 -6 b 197 28 182 -6 197 8 l 197 694 b 431 960 197 857 296 960 b 638 778 553 960 638 883 l 638 775 b 424 539 638 653 543 581 b 396 504 408 533 396 522 b 431 471 396 485 410 474 b 700 263 579 451 700 389 l 700 260 b 425 58 700 128 583 67 b 396 28 410 57 396 44 z "},"Æ":{"ha":1451,"x_min":0,"x_max":0,"o":"m 49 26 b 82 -7 49 8 64 -7 b 113 11 94 -7 106 0 l 269 272 l 686 272 l 686 36 b 722 0 686 17 703 0 l 1336 0 b 1369 33 1354 0 1369 15 b 1336 67 1369 51 1354 67 l 758 67 l 758 457 l 1267 457 b 1300 490 1285 457 1300 472 b 1267 524 1300 508 1285 524 l 758 524 l 758 906 l 1329 906 b 1363 939 1347 906 1363 921 b 1329 972 1363 957 1347 972 l 639 972 b 603 950 621 972 611 964 l 56 46 b 49 26 51 39 49 32 z m 308 338 l 650 907 l 686 907 l 686 338 z "},"£":{"ha":894,"x_min":0,"x_max":0,"o":"m 92 18 b 110 0 92 8 100 0 l 779 0 b 813 32 797 0 813 14 b 779 65 813 50 797 65 l 288 65 l 288 424 l 674 424 b 707 457 692 424 707 439 b 674 490 707 475 692 490 l 288 490 l 288 656 b 357 861 288 744 311 815 b 514 921 396 900 447 921 b 740 810 624 921 685 874 b 768 797 747 803 756 797 b 803 831 788 797 803 811 b 793 857 803 840 799 850 b 515 986 732 929 651 986 b 307 906 431 986 358 957 b 217 654 249 847 217 758 l 217 490 l 125 490 b 92 457 107 490 92 475 b 125 424 92 439 107 424 l 217 424 l 217 63 l 108 38 b 92 18 97 35 92 28 z "},"¢":{"ha":807,"x_min":0,"x_max":0,"o":"m 304 29 b 338 -14 299 4 315 -14 b 371 14 356 -14 368 0 l 393 125 b 447 122 411 122 429 122 b 721 246 569 122 653 174 b 731 268 726 251 731 258 b 700 300 731 285 717 300 b 674 288 689 300 681 294 b 451 186 613 226 540 186 b 401 190 435 186 418 188 l 518 790 b 667 699 578 775 625 739 b 693 688 674 692 681 688 b 726 722 713 688 726 703 b 714 750 726 733 722 742 b 535 854 667 794 611 836 l 553 943 b 519 986 558 968 542 986 b 486 958 501 986 489 972 l 468 864 l 447 864 b 86 493 244 864 86 692 l 86 490 b 328 143 86 332 185 193 z m 160 493 l 160 496 b 446 800 160 665 285 800 l 458 800 l 344 207 b 160 493 236 251 160 363 z "},"š":{"ha":690,"x_min":0,"x_max":0,"o":"m 354 901 l 267 982 b 221 1000 250 997 239 1000 b 201 986 208 1000 201 993 b 208 969 201 981 203 976 l 308 847 b 347 822 321 832 331 822 l 358 822 b 397 847 375 822 385 832 l 497 969 b 504 986 503 976 504 981 b 486 1000 504 993 497 1000 b 442 982 468 1000 458 997 z m 86 97 b 82 142 72 110 71 128 l 82 142 b 129 146 93 156 114 158 l 129 146 b 338 67 176 111 251 67 l 338 67 b 467 108 390 67 436 83 l 467 108 b 518 192 500 131 518 161 l 518 192 b 469 275 517 224 504 246 l 469 275 b 325 325 440 297 392 314 l 325 325 l 322 326 b 168 379 261 338 207 351 l 168 379 b 94 501 125 404 94 449 l 94 501 b 168 635 94 556 125 603 l 168 635 b 335 681 208 663 265 681 l 335 681 b 538 607 422 681 485 640 l 538 607 b 547 560 553 596 557 575 l 547 560 b 501 550 538 544 517 540 l 501 550 b 335 618 451 583 401 618 l 335 618 b 206 579 279 618 235 603 l 206 579 b 163 501 178 557 163 529 l 163 501 b 201 433 163 474 175 454 l 201 433 b 340 386 232 413 278 396 l 340 386 l 343 386 b 508 331 408 376 461 357 l 508 331 b 585 192 553 301 585 249 l 585 192 b 507 54 585 135 553 89 l 507 54 b 338 0 460 19 404 0 l 338 0 b 86 97 228 1 142 53 l 86 97 z "},"›":{"ha":432,"x_min":0,"x_max":0,"o":"m 125 649 b 94 619 108 649 96 636 b 103 596 93 610 97 604 l 278 353 l 103 113 b 94 89 97 106 94 97 b 125 60 94 72 108 60 b 151 75 136 60 144 65 l 342 324 b 356 354 351 336 356 344 b 342 385 356 364 351 372 l 151 633 b 125 649 144 643 138 649 z "},"å":{"ha":797,"x_min":0,"x_max":0,"o":"m 682 681 b 649 647 664 681 649 667 l 649 547 b 393 681 590 628 497 681 b 71 340 214 681 71 526 b 393 0 71 154 214 0 b 649 135 497 0 590 54 l 649 33 b 682 0 649 15 664 0 b 715 33 700 0 715 15 l 715 647 b 682 681 715 667 700 681 z m 393 67 b 138 340 254 67 138 188 b 393 615 138 493 254 615 b 649 340 533 615 649 493 b 393 67 649 188 533 67 z m 393 778 b 521 899 461 778 521 835 l 521 900 b 393 1022 521 967 461 1022 b 269 900 329 1022 269 967 l 269 899 b 393 778 269 835 329 778 z m 393 835 b 329 899 358 835 329 867 l 329 900 b 393 968 329 935 358 968 b 461 900 433 968 461 935 l 461 899 b 393 835 461 867 433 835 z "},"Ð":{"ha":1128,"x_min":0,"x_max":0,"o":"m 219 458 l 219 33 b 250 0 219 15 233 1 l 435 0 b 921 485 703 0 921 217 b 435 972 921 753 703 972 l 253 972 b 219 939 235 972 219 957 l 219 511 l 103 511 b 76 486 88 511 76 501 b 103 458 76 469 88 458 z m 288 68 l 288 458 l 399 458 b 425 486 413 458 425 469 b 399 511 425 501 413 511 l 288 511 l 288 904 l 435 904 b 853 485 665 903 853 717 b 435 68 853 254 665 68 z "},"ð":{"ha":872,"x_min":0,"x_max":0,"o":"m 660 588 b 414 675 599 635 526 675 b 81 339 239 675 81 540 b 429 -17 81 147 229 -17 b 789 344 647 -17 789 153 b 668 683 789 479 742 575 l 518 907 l 631 963 b 650 990 642 968 650 976 b 619 1022 650 1007 636 1022 b 603 1018 615 1022 608 1021 l 483 957 l 454 1001 b 422 1019 447 1011 438 1019 b 388 986 403 1019 388 1004 b 396 961 388 976 392 967 l 421 925 l 258 846 b 239 818 247 840 239 832 b 269 786 239 801 253 786 b 286 790 274 786 281 788 l 456 876 z m 715 338 b 436 47 715 183 603 47 b 154 335 272 47 154 186 b 422 614 154 492 257 614 b 715 338 588 614 715 489 z "},"ø":{"ha":889,"x_min":0,"x_max":0,"o":"m 443 -17 b 808 354 654 -17 808 156 l 808 357 b 718 601 808 450 775 536 l 789 676 b 797 697 794 682 797 690 b 769 724 797 713 785 724 b 744 713 761 724 751 719 l 678 640 b 446 725 617 693 536 725 b 81 354 235 725 81 553 l 81 351 b 169 107 81 258 114 174 l 100 35 b 92 14 94 29 92 21 b 119 -12 92 -1 104 -12 b 144 -1 128 -12 138 -8 l 211 67 b 443 -17 272 15 353 -17 z m 446 47 b 256 119 372 47 307 74 l 668 550 b 735 354 710 497 735 429 l 735 351 b 446 47 735 185 614 47 z m 154 354 l 154 357 b 443 661 154 524 275 661 b 633 588 517 661 582 633 l 219 158 b 154 354 178 211 154 279 z "},"Ø":{"ha":1181,"x_min":0,"x_max":0,"o":"m 589 -17 b 1079 486 883 -17 1079 221 l 1079 489 b 951 831 1079 618 1033 740 l 1047 933 b 1056 956 1053 939 1056 947 b 1026 985 1056 972 1043 985 b 1001 974 1017 985 1008 981 l 908 874 b 592 989 826 944 718 989 b 101 486 297 989 101 751 l 101 483 b 228 140 101 354 147 232 l 133 39 b 125 17 128 33 125 25 b 154 -12 125 0 138 -12 b 179 -1 164 -12 172 -8 l 272 97 b 589 -17 354 26 461 -17 z m 176 486 l 176 489 b 589 924 176 729 349 924 b 861 819 696 924 790 883 l 279 194 b 176 486 214 272 176 374 z m 592 49 b 318 153 485 49 390 88 l 901 776 b 1004 486 965 699 1004 597 l 1004 483 b 592 49 1004 243 832 49 z "},"×":{"ha":861,"x_min":0,"x_max":0,"o":"m 711 722 b 722 747 718 729 722 738 b 689 781 722 765 707 781 b 664 769 679 781 671 776 l 432 535 l 201 768 b 174 781 194 775 185 781 b 139 746 154 781 139 765 b 151 718 139 735 144 725 l 385 488 l 150 256 b 139 231 143 249 139 240 b 172 197 139 213 154 197 b 197 208 182 197 190 201 l 429 443 l 660 210 b 688 197 667 203 676 197 b 722 232 707 197 722 213 b 710 260 722 243 717 253 l 476 490 z "},"Š":{"ha":889,"x_min":0,"x_max":0,"o":"m 457 1151 l 369 1232 b 324 1250 353 1247 342 1250 b 304 1236 311 1250 304 1243 b 311 1219 304 1231 306 1226 l 411 1097 b 450 1072 424 1082 433 1072 l 461 1072 b 500 1097 478 1072 488 1082 l 600 1219 b 607 1236 606 1226 607 1231 b 589 1250 607 1243 600 1250 b 544 1232 571 1250 561 1247 z m 104 139 b 100 182 92 150 90 169 l 100 182 b 143 186 111 196 131 197 l 143 186 b 463 61 215 128 336 60 l 463 61 b 676 125 547 61 624 86 l 676 125 b 760 269 731 164 760 215 l 760 269 b 681 403 760 325 733 367 l 681 403 b 456 482 628 438 550 464 l 456 482 l 453 482 b 224 564 363 499 283 524 l 224 564 b 124 733 164 603 124 661 l 124 733 b 225 915 124 807 164 871 l 225 915 b 460 986 286 960 368 986 l 460 986 b 760 874 588 986 683 924 l 760 874 b 768 831 774 864 778 846 l 768 831 b 726 822 760 817 740 813 l 726 822 b 460 925 650 872 567 925 l 460 925 b 261 867 381 925 310 901 l 261 867 b 185 733 213 831 185 783 l 185 733 b 257 615 186 685 208 649 l 257 615 b 465 542 306 582 378 558 l 465 542 l 468 542 b 715 453 565 524 651 496 l 715 453 b 822 269 779 411 822 347 l 822 269 b 713 75 822 192 778 122 l 713 75 b 463 -1 647 28 560 -1 l 463 -1 b 104 139 314 0 185 75 l 104 139 z "},"†":{"ha":569,"x_min":0,"x_max":0,"o":"m 254 357 b 285 325 254 338 268 325 b 315 357 301 325 315 338 l 308 728 l 456 719 b 488 749 472 718 488 732 b 456 779 488 765 472 781 l 310 771 l 318 942 b 285 978 319 963 306 978 b 251 942 264 978 250 963 l 260 771 l 114 779 b 82 749 97 781 82 765 b 114 719 82 732 97 718 l 261 728 z "},"‡":{"ha":597,"x_min":0,"x_max":0,"o":"m 265 31 b 299 -6 264 10 278 -6 b 332 31 319 -6 333 10 l 324 201 l 469 193 b 501 224 486 192 501 207 b 469 253 501 240 486 254 l 322 244 l 329 486 l 322 728 l 469 719 b 501 749 486 718 501 732 b 469 779 501 765 486 781 l 324 771 l 332 942 b 299 978 333 963 319 978 b 265 942 278 978 264 963 l 274 771 l 128 779 b 96 749 111 781 96 765 b 128 719 96 732 111 718 l 275 728 l 268 486 l 275 244 l 128 253 b 96 224 111 254 96 240 b 128 193 96 207 111 192 l 274 201 z "},"‹":{"ha":432,"x_min":0,"x_max":0,"o":"m 307 60 b 338 89 324 60 338 72 b 329 113 338 97 335 106 l 154 356 l 329 596 b 338 619 335 603 338 611 b 307 649 338 636 324 649 b 281 633 296 649 288 643 l 90 385 b 76 354 81 372 76 364 b 90 324 76 344 81 336 l 281 75 b 307 60 288 65 296 60 z "},"»":{"ha":715,"x_min":0,"x_max":0,"o":"m 408 649 b 378 619 392 649 378 636 b 386 596 378 611 381 603 l 561 353 l 386 113 b 378 89 381 106 378 97 b 408 60 378 72 392 60 b 435 75 419 60 428 65 l 625 324 b 639 354 635 336 639 344 b 625 385 639 364 635 372 l 435 633 b 408 649 428 643 419 649 z m 125 649 b 94 619 108 649 96 636 b 103 596 93 610 97 604 l 278 353 l 103 113 b 94 89 97 106 94 97 b 125 60 94 72 108 60 b 151 75 136 60 144 65 l 342 324 b 356 354 351 336 356 344 b 342 385 356 364 351 372 l 151 633 b 125 649 144 643 138 649 z "},"º":{"ha":542,"x_min":0,"x_max":0,"o":"m 269 571 b 471 775 386 571 471 665 l 471 778 b 272 979 471 886 388 979 b 71 775 156 979 71 885 l 71 772 b 269 571 71 664 154 571 z m 93 407 l 449 407 b 476 435 464 407 476 419 b 449 463 476 450 464 463 l 93 463 b 65 435 78 463 65 450 b 93 407 65 419 78 407 z m 272 625 b 131 775 192 625 131 692 l 131 778 b 269 925 131 858 188 925 b 411 775 350 925 411 858 l 411 772 b 272 625 411 692 354 625 z "},"¸":{"ha":694,"x_min":0,"x_max":0,"o":"m 410 14 l 350 14 l 243 -143 b 236 -164 238 -153 236 -158 b 283 -197 236 -179 261 -197 b 319 -169 304 -197 311 -186 z "},"·":{"ha":319,"x_min":0,"x_max":0,"o":"m 114 432 l 114 394 b 160 349 114 368 133 349 b 206 394 186 349 206 368 l 206 432 b 160 478 206 458 186 478 b 114 432 133 478 114 458 z "},"¶":{"ha":667,"x_min":0,"x_max":0,"o":"m 463 31 b 500 -6 463 10 479 -6 b 536 31 521 -6 536 10 l 536 935 b 499 972 536 956 519 972 l 433 972 b 74 681 224 972 74 863 l 74 678 b 454 385 74 490 240 385 l 463 385 z "},"«":{"ha":715,"x_min":0,"x_max":0,"o":"m 590 60 b 621 89 607 60 619 72 b 613 113 621 99 618 104 l 438 356 l 613 596 b 621 619 618 603 621 611 b 590 649 621 636 607 649 b 564 633 579 649 571 643 l 374 385 b 360 354 364 372 360 364 b 374 324 360 344 364 336 l 564 75 b 590 60 571 65 578 60 z m 307 60 b 338 89 324 60 338 72 b 329 113 338 97 335 106 l 154 356 l 329 596 b 338 619 335 603 338 611 b 307 649 338 636 324 649 b 281 633 296 649 288 643 l 90 385 b 76 354 81 372 76 364 b 90 324 76 344 81 336 l 281 75 b 307 60 288 65 296 60 z "},"ª":{"ha":542,"x_min":0,"x_max":0,"o":"m 147 407 l 453 407 b 481 435 468 407 481 419 b 453 463 481 450 468 463 l 147 463 b 119 435 132 463 119 450 b 147 407 119 419 132 407 z m 468 960 b 447 939 457 960 447 950 l 447 875 b 285 960 410 926 351 960 b 81 744 171 960 81 863 b 285 528 81 626 171 528 b 447 614 351 528 410 563 l 447 549 b 468 528 447 538 457 528 b 490 549 479 528 490 538 l 490 939 b 468 960 490 950 479 960 z m 285 571 b 124 744 197 571 124 646 b 285 918 124 840 197 918 b 447 744 375 918 447 840 b 285 571 447 646 375 571 z "},"¥":{"ha":953,"x_min":0,"x_max":0,"o":"m 410 33 b 443 0 410 15 425 0 b 476 33 463 0 476 15 l 476 232 l 690 232 b 729 271 713 232 729 249 b 690 308 729 290 713 308 l 476 308 l 476 447 l 690 447 b 729 485 713 447 729 464 b 690 524 729 507 713 524 l 515 524 l 801 913 b 794 960 813 928 810 950 b 747 954 779 972 757 969 l 442 536 l 138 954 b 90 960 128 969 106 972 b 83 913 76 950 74 928 l 368 524 l 196 524 b 157 485 174 524 157 507 b 196 447 157 464 174 447 l 410 447 l 410 308 l 196 308 b 157 271 174 308 157 290 b 196 232 157 249 174 232 l 410 232 l 410 33 z "},"þ":{"ha":917,"x_min":0,"x_max":0,"o":"m 129 -193 b 164 -228 129 -214 144 -228 b 197 -193 183 -228 197 -214 l 197 153 b 489 -17 256 64 347 -17 b 833 354 660 -17 833 124 l 833 357 b 489 725 833 588 660 725 b 197 550 349 725 258 643 l 197 985 b 163 1019 197 1006 182 1019 b 129 985 143 1019 129 1006 z m 482 49 b 193 353 335 49 193 171 l 193 356 b 482 660 193 536 335 660 b 760 354 631 660 760 540 l 760 351 b 482 49 760 161 636 49 z "},"Þ":{"ha":935,"x_min":0,"x_max":0,"o":"m 144 31 b 181 -6 144 11 161 -6 b 217 31 200 -6 217 11 l 217 185 l 479 185 b 858 496 682 185 858 292 l 858 499 b 497 796 858 686 711 796 l 217 796 l 217 942 b 181 978 217 961 200 978 b 144 942 161 978 144 961 z m 217 251 l 217 729 l 492 729 b 786 494 667 729 786 649 l 786 492 b 483 251 786 347 664 251 z "},"À":{"ha":901,"x_min":0,"x_max":0,"o":"m 763 22 l 676 251 l 233 251 l 147 22 b 115 0 142 8 129 0 b 103 1 113 0 107 1 b 83 46 86 8 76 29 l 421 947 b 454 968 426 960 440 968 b 488 947 469 968 483 960 l 825 46 b 807 1 832 29 824 8 b 794 0 801 1 799 0 b 763 22 782 0 768 8 z m 258 319 l 651 319 l 456 842 z m 531 1100 b 549 1113 540 1100 549 1106 b 543 1128 549 1118 546 1124 l 457 1257 b 418 1282 446 1274 435 1282 b 360 1250 392 1282 360 1264 b 375 1225 360 1242 367 1233 l 486 1118 b 531 1100 503 1103 513 1100 z "},"Á":{"ha":897,"x_min":0,"x_max":0,"o":"m 763 22 l 676 251 l 233 251 l 147 22 b 115 0 142 8 129 0 b 103 1 113 0 107 1 b 83 46 86 8 76 29 l 421 947 b 454 968 426 960 440 968 b 488 947 469 968 483 960 l 825 46 b 807 1 832 29 824 8 b 794 0 801 1 799 0 b 763 22 782 0 768 8 z m 258 319 l 651 319 l 456 842 z m 379 1100 b 424 1118 397 1100 407 1103 l 535 1225 b 550 1250 543 1233 550 1242 b 492 1282 550 1264 518 1282 b 453 1257 475 1282 464 1274 l 367 1128 b 361 1113 364 1124 361 1118 b 379 1100 361 1106 369 1100 z "},"È":{"ha":824,"x_min":0,"x_max":0,"o":"m 144 33 l 144 939 b 178 972 144 957 160 972 l 181 972 l 678 972 b 711 939 697 972 711 957 b 678 904 711 919 697 904 l 213 904 l 213 519 l 619 519 b 653 485 638 519 653 504 b 619 451 653 467 638 451 l 213 451 l 213 68 l 678 68 b 711 33 697 68 711 53 b 678 0 711 15 697 0 l 182 0 l 178 0 l 175 0 b 144 33 158 1 144 15 z m 506 1100 b 524 1113 515 1100 524 1106 b 518 1128 524 1118 521 1124 l 432 1257 b 393 1282 421 1274 410 1282 b 335 1250 367 1282 335 1264 b 350 1225 335 1242 342 1233 l 461 1118 b 506 1100 478 1103 488 1100 z "},"É":{"ha":824,"x_min":0,"x_max":0,"o":"m 144 33 l 144 939 b 178 972 144 957 160 972 l 181 972 l 678 972 b 711 939 697 972 711 957 b 678 904 711 919 697 904 l 213 904 l 213 519 l 619 519 b 653 485 638 519 653 504 b 619 451 653 467 638 451 l 213 451 l 213 68 l 678 68 b 711 33 697 68 711 53 b 678 0 711 15 697 0 l 182 0 l 178 0 l 175 0 b 144 33 158 1 144 15 z m 349 1100 b 393 1118 367 1100 376 1103 l 504 1225 b 519 1250 513 1233 519 1242 b 461 1282 519 1264 488 1282 b 422 1257 444 1282 433 1274 l 336 1128 b 331 1113 333 1124 331 1118 b 349 1100 331 1106 339 1100 z "},"Ê":{"ha":824,"x_min":0,"x_max":0,"o":"m 144 33 l 144 939 b 178 972 144 957 160 972 l 181 972 l 678 972 b 711 939 697 972 711 957 b 678 904 711 919 697 904 l 213 904 l 213 519 l 619 519 b 653 485 638 519 653 504 b 619 451 653 467 638 451 l 213 451 l 213 68 l 678 68 b 711 33 697 68 711 53 b 678 0 711 15 697 0 l 182 0 l 178 0 l 175 0 b 144 33 158 1 144 15 z m 424 1199 l 511 1118 b 557 1100 528 1103 539 1100 b 576 1114 569 1100 576 1107 b 569 1131 576 1119 575 1124 l 469 1253 b 431 1278 457 1268 447 1278 l 419 1278 b 381 1253 403 1278 393 1268 l 281 1131 b 274 1114 275 1124 274 1119 b 292 1100 274 1107 281 1100 b 336 1118 310 1100 319 1103 z "},"è":{"ha":846,"x_min":0,"x_max":0,"o":"m 411 0 b 81 339 228 0 81 153 b 411 681 81 528 228 681 b 739 364 586 681 725 542 l 739 363 l 739 358 b 706 328 739 340 724 328 l 147 328 b 411 67 154 179 271 67 b 631 190 501 67 585 114 b 675 201 640 207 661 210 b 686 154 690 190 696 171 b 411 0 628 61 526 0 z m 411 614 b 151 393 283 614 176 522 l 667 393 b 411 614 644 521 536 614 z m 486 792 b 504 804 496 792 504 797 b 499 819 504 810 501 815 l 413 949 b 374 974 401 965 390 974 b 315 942 347 974 315 956 b 331 917 315 933 322 925 l 442 810 b 486 792 458 794 468 792 z "},"é":{"ha":846,"x_min":0,"x_max":0,"o":"m 411 0 b 81 339 228 0 81 153 b 411 681 81 528 228 681 b 739 364 586 681 725 542 l 739 363 l 739 358 b 706 328 739 340 724 328 l 147 328 b 411 67 154 179 271 67 b 631 190 501 67 585 114 b 675 201 640 207 661 210 b 686 154 690 190 696 171 b 411 0 628 61 526 0 z m 411 614 b 151 393 283 614 176 522 l 667 393 b 411 614 644 521 536 614 z m 333 792 b 378 810 351 792 361 794 l 489 917 b 504 942 497 925 504 933 b 446 974 504 956 472 974 b 407 949 429 974 418 965 l 321 819 b 315 804 318 815 315 810 b 333 792 315 797 324 792 z "},"ê":{"ha":846,"x_min":0,"x_max":0,"o":"m 411 0 b 81 339 228 0 81 153 b 411 681 81 528 228 681 b 739 364 586 681 725 542 l 739 363 l 739 358 b 706 328 739 340 724 328 l 147 328 b 411 67 154 179 271 67 b 631 190 501 67 585 114 b 675 201 640 207 661 210 b 686 154 690 190 696 171 b 411 0 628 61 526 0 z m 411 614 b 151 393 283 614 176 522 l 667 393 b 411 614 644 521 536 614 z m 410 890 l 497 810 b 543 792 514 794 525 792 b 563 806 556 792 563 799 b 556 822 563 811 561 815 l 456 944 b 417 969 443 960 433 969 l 406 969 b 367 944 389 969 379 960 l 267 822 b 260 806 261 815 260 811 b 278 792 260 799 267 792 b 322 810 296 792 306 794 z "},"ì":{"ha":390,"x_min":0,"x_max":0,"o":"m 131 33 l 131 647 b 164 681 131 667 146 681 l 164 681 b 199 647 183 681 199 667 l 199 647 l 199 33 b 164 0 199 15 183 0 l 164 0 b 131 33 146 0 131 15 l 131 33 z m 240 792 b 258 804 250 792 258 797 b 253 819 258 810 256 815 l 167 949 b 128 974 156 965 144 974 b 69 942 101 974 69 956 b 85 917 69 933 76 925 l 196 810 b 240 792 213 794 222 792 z "},"í":{"ha":390,"x_min":0,"x_max":0,"o":"m 131 33 l 131 647 b 164 681 131 667 146 681 l 164 681 b 199 647 183 681 199 667 l 199 647 l 199 33 b 164 0 199 15 183 0 l 164 0 b 131 33 146 0 131 15 l 131 33 z m 88 792 b 132 810 106 792 115 794 l 243 917 b 258 942 251 925 258 933 b 200 974 258 956 226 974 b 161 949 183 974 172 965 l 75 819 b 69 804 72 815 69 810 b 88 792 69 797 78 792 z "},"î":{"ha":390,"x_min":0,"x_max":0,"o":"m 131 33 l 131 647 b 164 681 131 667 146 681 l 164 681 b 199 647 183 681 199 667 l 199 647 l 199 33 b 164 0 199 15 183 0 l 164 0 b 131 33 146 0 131 15 l 131 33 z m 163 890 l 250 810 b 296 792 267 794 278 792 b 315 806 308 792 315 799 b 308 822 315 811 314 815 l 208 944 b 169 969 196 960 186 969 l 158 969 b 119 944 142 969 132 960 l 19 822 b 13 806 14 815 13 811 b 31 792 13 799 19 792 b 75 810 49 792 58 794 z "},"ï":{"ha":390,"x_min":0,"x_max":0,"o":"m 131 33 l 131 647 b 164 681 131 667 146 681 l 164 681 b 199 647 183 681 199 667 l 199 647 l 199 33 b 164 0 199 15 183 0 l 164 0 b 131 33 146 0 131 15 l 131 33 z m -8 851 b 51 792 -8 818 18 792 b 111 851 85 792 111 818 b 51 911 111 885 85 911 b -8 851 18 911 -8 885 z m 221 851 b 281 792 221 818 247 792 b 340 851 314 792 340 818 b 281 911 340 885 314 911 b 221 851 247 911 221 885 z "},"Ç":{"ha":1071,"x_min":0,"x_max":0,"o":"m 101 490 l 101 490 b 607 0 101 219 328 0 l 607 0 b 921 106 726 0 836 40 l 921 106 b 925 154 936 117 939 142 l 925 154 b 876 163 915 171 893 174 l 876 163 b 607 68 804 101 710 68 l 607 68 b 169 490 364 68 169 258 l 169 490 b 607 918 169 728 364 918 l 607 918 b 879 824 710 918 804 882 l 879 824 b 926 831 893 813 915 814 l 926 831 b 921 879 939 843 936 867 l 921 879 b 607 986 836 944 726 986 l 607 986 b 101 490 328 985 101 767 z m 622 14 l 563 14 l 456 -143 b 449 -164 450 -153 449 -158 b 496 -197 449 -179 474 -197 b 532 -169 517 -197 524 -186 z "},"ç":{"ha":793,"x_min":0,"x_max":0,"o":"m 431 0 l 431 0 b 431 0 431 0 431 0 l 431 0 b 644 72 511 0 588 28 l 644 72 b 651 121 661 85 664 106 l 651 121 b 606 126 640 133 621 138 l 606 126 l 606 126 b 431 67 557 89 496 67 l 431 67 b 147 342 272 67 147 189 l 147 342 b 431 615 147 492 272 615 l 431 615 b 606 554 496 615 557 593 l 606 554 b 651 560 621 543 640 547 l 651 560 b 647 606 664 575 661 596 l 647 606 b 431 681 588 653 511 681 l 431 681 b 81 342 236 681 81 531 l 81 342 b 431 0 81 150 236 0 z m 483 14 l 424 14 l 317 -143 b 310 -164 311 -153 310 -158 b 357 -197 310 -179 335 -197 b 393 -169 378 -197 385 -186 z "},"Å":{"ha":897,"x_min":0,"x_max":0,"o":"m 808 46 l 497 875 b 568 982 539 896 568 938 l 568 983 b 440 1106 568 1050 508 1106 b 317 983 376 1106 317 1050 l 317 982 b 379 879 317 940 343 900 l 67 46 b 86 1 60 29 69 8 b 99 0 90 1 96 0 b 131 22 113 0 125 8 l 217 251 l 660 251 l 746 22 b 778 0 751 8 765 0 b 790 1 782 0 785 1 b 808 46 807 8 815 29 z m 376 982 l 376 983 b 440 1051 376 1018 406 1051 b 508 983 481 1051 508 1018 l 508 982 b 478 929 508 961 497 940 b 440 918 467 922 454 918 b 399 935 425 918 410 925 b 376 982 385 946 376 964 z m 242 319 l 439 842 l 635 319 l 242 319 z "},"Œ":{"ha":2004,"x_min":0,"x_max":0,"o":"m 982 33 b 1013 0 982 15 996 1 l 1515 0 b 1549 33 1535 0 1549 15 b 1515 68 1549 53 1535 68 l 1050 68 l 1050 451 l 1457 451 b 1490 485 1475 451 1490 467 b 1457 519 1490 504 1475 519 l 1050 519 l 1050 904 l 1515 904 b 1549 939 1535 904 1549 919 b 1515 972 1549 957 1535 972 l 1015 972 b 982 939 997 972 982 957 l 982 724 b 571 986 904 879 750 986 b 101 493 308 986 103 765 b 571 0 103 221 308 0 b 982 263 750 0 904 106 z m 169 493 b 571 917 169 733 350 917 b 967 493 785 917 965 733 b 571 68 965 256 785 68 b 169 493 350 68 169 256 z "}}}
